<?xml version="1.0" encoding="utf-8"?>
<!-- Generator: Adobe Illustrator 16.0.0, SVG Export Plug-In . SVG Version: 6.00 Build 0)  -->
<!DOCTYPE svg PUBLIC "-//W3C//DTD SVG 1.1//EN" "http://www.w3.org/Graphics/SVG/1.1/DTD/svg11.dtd">
<svg version="1.1" id="Layer_1" xmlns="http://www.w3.org/2000/svg" xmlns:xlink="http://www.w3.org/1999/xlink" x="0px" y="0px"
	 width="111px" height="125px" viewBox="0 0 111 125" enable-background="new 0 0 111 125" xml:space="preserve">
<path id="logo" fill="#FFFFFF" d="M58.771,11.75V0H40.972L29.385,18.382L17.8,0H0v11.75h5.878v35.257H0V58.76h23.51V47.007h-5.88
	V21.74l11.755,18.636L41.14,21.74v25.267h-5.878V58.76h23.509V47.007H52.9V11.75h5.877H58.771z M53.482,52.3v1.175h-12.93V52.3
	h5.877V6.462h-1.847l-15.2,24.008l-15.2-24.008H12.34V52.3h5.877v1.175H5.287V52.3h5.877V6.462H5.287V5.287h9.572l14.526,23
	l14.525-23h9.572v1.175h-5.877V52.3H53.482L53.482,52.3z M93.365,5.291c1.645-0.007,3.272,0.322,4.785,0.965
	c2.979,1.244,5.348,3.612,6.592,6.59c0.644,1.513,0.972,3.141,0.965,4.785v23.5c0.007,1.644-0.321,3.272-0.965,4.785
	c-1.244,2.979-3.612,5.346-6.592,6.59c-1.513,0.644-3.141,0.973-4.785,0.965H81.609c-1.644,0.007-3.272-0.321-4.785-0.965
	c-2.979-1.243-5.348-3.611-6.592-6.59c-0.645-1.513-0.973-3.141-0.965-4.785v-23.5c-0.008-1.644,0.32-3.272,0.965-4.785
	c1.244-2.979,3.612-5.347,6.592-6.59c1.513-0.644,3.142-0.972,4.785-0.965H93.365z M93.365,52.3
	c1.486,0.005,2.958-0.295,4.324-0.882c2.693-1.125,4.834-3.267,5.961-5.96c0.586-1.365,0.887-2.837,0.882-4.323v-23.5
	c0.005-1.486-0.296-2.958-0.882-4.323c-1.127-2.693-3.269-4.834-5.961-5.96c-1.366-0.586-2.838-0.886-4.324-0.881H81.609
	c-1.486-0.005-2.957,0.294-4.323,0.881c-2.694,1.125-4.836,3.267-5.962,5.96c-0.586,1.366-0.887,2.837-0.881,4.323v23.5
	c-0.006,1.486,0.294,2.958,0.881,4.323c1.126,2.693,3.268,4.834,5.962,5.96c1.366,0.587,2.837,0.887,4.323,0.882H93.365z M81.609,0
	c-2.365-0.02-4.71,0.452-6.885,1.385c-4.222,1.8-7.579,5.171-9.361,9.4c-0.926,2.162-1.397,4.49-1.387,6.842v23.5
	c-0.02,2.366,0.453,4.709,1.387,6.883c1.801,4.208,5.154,7.56,9.361,9.36c2.175,0.933,4.52,1.405,6.885,1.385h11.756
	c2.352,0.011,4.681-0.46,6.843-1.385c4.229-1.783,7.599-5.139,9.399-9.36c0.936-2.172,1.409-4.514,1.393-6.879v-23.5
	c0.011-2.351-0.461-4.68-1.385-6.842c-1.783-4.243-5.158-7.618-9.4-9.4c-2.164-0.927-4.496-1.4-6.85-1.389H81.609z M81.609,47.009
	c-3.245,0.001-5.877-2.63-5.877-5.876v-23.5c0-3.246,2.632-5.876,5.877-5.876h11.756c3.245,0,5.876,2.63,5.877,5.875
	c0,0,0,0.001,0,0.001v23.5c0,3.246-2.631,5.876-5.876,5.876c-0.001,0-0.001,0-0.001,0H81.609z M34.927,66.236v11.752H40.8v24.848
	l-22.922-36.6H0.249v11.752h5.878v35.257H0.249V125h23.51v-11.755h-5.877V88.4L40.8,125h11.755V77.988h5.878V66.236H34.923H34.927z
	 M53.147,72.699h-5.878v47.01h-3.526L14.271,72.7h-1.679v45.834h5.878v1.176H5.539v-1.176h5.878V72.7H5.539v-1.177h9.4l29.472,47.01
	h1.679V72.7h-5.878v-1.177h12.931V72.7L53.147,72.699z M93.113,71.523c1.645-0.006,3.272,0.322,4.785,0.966
	c2.979,1.243,5.348,3.611,6.593,6.59c0.643,1.513,0.972,3.142,0.965,4.785v23.5c0.007,1.644-0.322,3.271-0.965,4.784
	c-1.244,2.979-3.613,5.347-6.593,6.59c-1.512,0.645-3.141,0.973-4.785,0.966H81.357c-1.644,0.007-3.271-0.321-4.784-0.966
	c-2.979-1.243-5.349-3.611-6.593-6.59c-0.644-1.512-0.972-3.141-0.965-4.784v-23.5c-0.007-1.645,0.321-3.272,0.965-4.785
	c1.245-2.979,3.613-5.347,6.593-6.59c1.513-0.644,3.141-0.972,4.784-0.966H93.113z M93.113,118.533
	c1.486,0.005,2.959-0.295,4.324-0.881c2.693-1.126,4.836-3.268,5.961-5.961c0.588-1.365,0.888-2.836,0.883-4.322v-23.5
	c0.005-1.486-0.295-2.957-0.883-4.323c-1.125-2.693-3.268-4.835-5.961-5.96c-1.365-0.587-2.838-0.887-4.324-0.882H81.357
	c-1.486-0.005-2.957,0.295-4.323,0.882c-2.693,1.125-4.835,3.267-5.961,5.96c-0.587,1.366-0.888,2.837-0.882,4.323v23.5
	c-0.006,1.486,0.295,2.957,0.882,4.322c1.126,2.693,3.268,4.835,5.961,5.961c1.366,0.586,2.837,0.887,4.323,0.881H93.113z
	 M81.357,66.232c-2.365-0.02-4.71,0.453-6.885,1.386c-4.221,1.801-7.578,5.171-9.361,9.399c-0.925,2.162-1.396,4.491-1.385,6.842
	v23.5c-0.02,2.366,0.451,4.71,1.385,6.884c1.801,4.208,5.154,7.56,9.361,9.36c2.174,0.937,4.519,1.412,6.885,1.396h11.756
	c2.352,0.011,4.682-0.461,6.844-1.385c4.229-1.783,7.6-5.139,9.4-9.36c0.933-2.174,1.404-4.518,1.385-6.883v-23.5
	c0.011-2.352-0.461-4.681-1.385-6.842c-1.783-4.243-5.158-7.618-9.4-9.4c-2.162-0.925-4.492-1.396-6.844-1.385H81.357V66.232z
	 M81.357,113.243c-3.244,0.001-5.876-2.63-5.877-5.875c0-0.001,0-0.001,0-0.001v-23.5c0-3.246,2.631-5.876,5.877-5.876l0,0h11.756
	c3.245-0.001,5.877,2.628,5.878,5.874c0,0,0,0.001,0,0.002v23.5c0,3.245-2.631,5.876-5.876,5.876c-0.001,0-0.002,0-0.002,0H81.357z"
	/>
</svg>
