<svg xmlns="http://www.w3.org/2000/svg" width="31" height="31" viewBox="0 0 31 31">
  <defs>
    <style>
      .cls-1 {
        fill: #fff;
        fill-rule: evenodd;
      }
    </style>
  </defs>
  <path id="ic_phone" class="cls-1" d="M511.045,419.341c4.866,6.011,16.725,11.771,19.588,10.477a5.616,5.616,0,0,0,3.353-5.385c-0.123-1.293-6.625-5.259-8.26-6.01s-3.517,1.67-4.417,2.713c-0.94,1-4.539-2.045-6.093-3.589,0,0-4.089-4.675-3.148-5.677s3.271-3,2.453-4.633-4.948-8.139-6.256-8.222a5.44,5.44,0,0,0-5.112,3.631c-1.145,2.964,4.335,14.275,10.428,18.991" transform="translate(-503 -399)"/>
</svg>
