<?xml version="1.0" encoding="utf-8"?>
<!-- Generator: Adobe Illustrator 16.0.0, SVG Export Plug-In . SVG Version: 6.00 Build 0)  -->
<!DOCTYPE svg PUBLIC "-//W3C//DTD SVG 1.1//EN" "http://www.w3.org/Graphics/SVG/1.1/DTD/svg11.dtd">
<svg version="1.1" id="Layer_1" xmlns="http://www.w3.org/2000/svg" xmlns:xlink="http://www.w3.org/1999/xlink" x="0px" y="0px"
	 width="310px" height="86.917px" viewBox="0 0 310 86.917" enable-background="new 0 0 310 86.917" xml:space="preserve">
<path id="Facebook_Letter_Logo._Attribute_as_SimpleIcon_from_Flaticon.com" fill="#FFFFFF" d="M99.388,14.405v2.59h-1.793v3.167
	h1.793v9.405h3.683v-9.41h2.471c0,0,0.231-1.518,0.344-3.18h-2.8v-2.16c0.06-0.406,0.39-0.721,0.8-0.758h2.007v-3.293h-2.734
	C99.296,10.762,99.388,13.933,99.388,14.405z"/>
<path fill="#FFFFFF" d="M188.762,12h-9.816c-1.705,0.004-3.088,1.387-3.092,3.092v9.816c0.004,1.705,1.387,3.088,3.092,3.092h9.816
	c1.705-0.004,3.088-1.387,3.092-3.092v-9.816C191.85,13.387,190.467,12.004,188.762,12z M189.648,13.844h0.354v2.713l-2.699,0.008
	l-0.01-2.711L189.648,13.844z M181.57,18.358c0.91-1.258,2.668-1.54,3.926-0.631c1.258,0.91,1.541,2.667,0.631,3.925
	s-2.668,1.541-3.926,0.631c-0.732-0.529-1.164-1.379-1.164-2.283C181.039,19.411,181.225,18.836,181.57,18.358z M190.295,24.908
	c-0.002,0.846-0.688,1.531-1.533,1.533h-9.816c-0.846-0.002-1.531-0.688-1.533-1.533v-6.55h2.389
	c-0.916,2.238,0.156,4.792,2.393,5.708c2.236,0.914,4.793-0.156,5.707-2.393c0.436-1.062,0.436-2.253,0-3.316h2.389v6.55H190.295z"
	/>
<path id="Vk_Logo_Of_Social_Network._Attribute_as_Freepik_from_Flaticon.com" fill="#FFFFFF" d="M150.753,19.192
	c0.299-0.388,0.537-0.699,0.712-0.934c1.262-1.682,1.81-2.757,1.642-3.225l-0.066-0.11c-0.092-0.093-0.21-0.157-0.339-0.181
	c-0.229-0.057-0.467-0.066-0.7-0.027l-3.153,0.021c-0.073-0.007-0.146-0.005-0.219,0.006c-0.048,0.005-0.096,0.016-0.142,0.033
	l-0.055,0.026l-0.043,0.033c-0.047,0.031-0.088,0.069-0.121,0.115c-0.045,0.058-0.082,0.123-0.109,0.192
	c-0.327,0.851-0.719,1.676-1.172,2.467c-0.267,0.454-0.515,0.848-0.744,1.18c-0.169,0.26-0.359,0.506-0.569,0.734
	c-0.129,0.137-0.268,0.263-0.416,0.379c-0.075,0.076-0.177,0.12-0.285,0.121c-0.067-0.016-0.129-0.029-0.186-0.045
	c-0.104-0.066-0.188-0.159-0.246-0.269c-0.068-0.134-0.111-0.278-0.126-0.428c-0.02-0.147-0.033-0.296-0.038-0.444
	c0-0.124,0-0.3,0-0.527c0-0.227,0.011-0.379,0.011-0.461c0-0.277,0.005-0.578,0.017-0.899c0.01-0.325,0.02-0.583,0.027-0.773
	c0.007-0.19,0.011-0.391,0.011-0.6c0.004-0.167-0.009-0.335-0.039-0.5c-0.026-0.12-0.064-0.238-0.114-0.351
	c-0.047-0.108-0.125-0.2-0.225-0.264c-0.114-0.068-0.238-0.118-0.367-0.148c-0.485-0.1-0.979-0.148-1.474-0.148
	c-0.881-0.074-1.768,0.016-2.616,0.264c-0.157,0.083-0.298,0.194-0.416,0.328c-0.131,0.161-0.15,0.249-0.055,0.264
	c0.361,0.025,0.697,0.195,0.931,0.472l0.066,0.132c0.072,0.16,0.123,0.328,0.153,0.5c0.055,0.264,0.088,0.531,0.1,0.8
	c0.037,0.456,0.037,0.915,0,1.371c-0.036,0.381-0.069,0.677-0.1,0.888c-0.022,0.179-0.072,0.352-0.147,0.516
	c-0.039,0.083-0.083,0.164-0.132,0.242c-0.014,0.021-0.032,0.04-0.054,0.055c-0.096,0.037-0.197,0.056-0.3,0.055
	c-0.136-0.014-0.266-0.066-0.372-0.154c-0.168-0.121-0.32-0.264-0.454-0.422c-0.198-0.234-0.375-0.486-0.531-0.75
	c-0.2-0.322-0.404-0.702-0.614-1.142l-0.175-0.317c-0.108-0.205-0.258-0.504-0.448-0.895c-0.19-0.392-0.357-0.77-0.5-1.135
	c-0.049-0.142-0.141-0.264-0.263-0.352l-0.054-0.033c-0.054-0.038-0.114-0.069-0.176-0.093c-0.081-0.032-0.165-0.057-0.251-0.071
	l-3,0.022c-0.229-0.028-0.458,0.049-0.624,0.209l-0.044,0.065c-0.025,0.056-0.037,0.116-0.032,0.177
	c0.004,0.103,0.026,0.204,0.065,0.3c0.438,1.031,0.914,2.025,1.429,2.982c0.515,0.958,0.962,1.729,1.341,2.315
	c0.379,0.585,0.766,1.138,1.16,1.656c0.4,0.519,0.655,0.853,0.783,1s0.228,0.256,0.3,0.329l0.274,0.264
	c0.241,0.23,0.499,0.441,0.772,0.631c0.363,0.261,0.739,0.502,1.127,0.725c0.453,0.254,0.937,0.449,1.44,0.58
	c0.52,0.148,1.06,0.209,1.6,0.182h1.259c0.217-0.005,0.424-0.091,0.58-0.241l0.044-0.055c0.037-0.062,0.064-0.13,0.082-0.2
	c0.026-0.098,0.039-0.199,0.038-0.3c-0.009-0.285,0.014-0.57,0.071-0.851c0.037-0.197,0.1-0.39,0.187-0.57
	c0.062-0.119,0.142-0.229,0.235-0.324c0.069-0.092,0.165-0.162,0.274-0.2c0.221-0.048,0.452,0.017,0.618,0.171
	c0.249,0.182,0.473,0.396,0.668,0.635c0.208,0.254,0.458,0.537,0.75,0.851c0.231,0.259,0.488,0.493,0.766,0.7l0.219,0.132
	c0.18,0.102,0.371,0.183,0.569,0.241c0.196,0.07,0.407,0.089,0.613,0.055l2.8-0.044c0.224,0.013,0.446-0.035,0.646-0.138
	c0.126-0.061,0.225-0.168,0.274-0.299c0.027-0.123,0.027-0.25,0-0.373c-0.015-0.1-0.041-0.197-0.077-0.291
	c-0.021-0.047-0.044-0.094-0.071-0.137c-0.574-0.907-1.279-1.724-2.091-2.425l-0.022-0.022l-0.011-0.01l-0.011-0.012h-0.01
	c-0.311-0.285-0.607-0.585-0.887-0.9c-0.218-0.241-0.277-0.587-0.153-0.888C150.044,20.118,150.375,19.636,150.753,19.192z"/>
<path fill="#FFFFFF" d="M71.542,15.991c0-1.651-1.338-2.991-2.989-2.991H54.531c-1.651,0-2.99,1.34-2.989,2.991v8.019
	c0,1.651,1.338,2.99,2.989,2.99h14.021c1.651,0,2.99-1.34,2.989-2.991V15.991z M59.542,23.383v-7.531l5.712,3.766L59.542,23.383z"/>
<g>
	<path fill="#FFFFFF" d="M10.996,18.592c-0.359,0.124-0.691,0.296-1,0.501v7.165c0.308,0.201,0.646,0.354,1,0.474V18.592z"/>
	<path fill="#FFFFFF" d="M13.996,26.971h1v-12.25c-0.049-0.002-0.097-0.01-0.146-0.01c-0.296-0.014-0.579,0.027-0.854,0.091V26.971z
		"/>
	<path fill="#FFFFFF" d="M15.996,26.971h1V14.989c-0.062,0.103-0.133,0.198-0.189,0.306c-0.253-0.167-0.527-0.293-0.811-0.39V26.971
		z"/>
	<path fill="#FFFFFF" d="M8.996,19.994c-0.605,0.748-0.976,1.689-0.992,2.71c0.027,1.005,0.403,1.91,0.992,2.635V19.994z"/>
	<path fill="#FFFFFF" d="M31.996,22.497c0.032-2.115-1.398-3.974-3.451-4.483c0.005-0.086,0.007-0.174,0.007-0.262
		c-0.112-3.295-2.87-5.877-6.166-5.772c-1.664-0.022-3.229,0.63-4.39,1.75v13.241h9.611c2.425-0.001,4.39-1.966,4.39-4.39
		C31.997,22.554,31.996,22.524,31.996,22.497z"/>
	<path fill="#FFFFFF" d="M12.996,15.218c-0.411,0.265-0.75,0.626-1,1.05v10.668c0.172,0.016,0.34,0.043,0.517,0.038
		c0.024-0.001,0.048-0.002,0.072-0.003h0.411V15.218z"/>
</g>
<path id="pas__2" fill="#FFFFFF" d="M245.846,26.973l7.052-6.975l-7.052-6.971l-0.871,0.874l6.166,6.101l-6.166,6.1L245.846,26.973z
	"/>
<path id="pas__3" fill="#FFFFFF" d="M293.111,27.003l-7.106-7.007l7.107-7l0.882,0.876l-6.218,6.124l6.218,6.129L293.111,27.003z"/>
<g>
	<path fill="#FFFFFF" d="M39,1v38H1V1H39 M40,0H0v40h40V0L40,0z"/>
</g>
<g>
	<path fill="#FFFFFF" d="M80,1v38H42V1H80 M81,0H41v40h40V0L81,0z"/>
</g>
<g>
	<path fill="#FFFFFF" d="M120.917,1v38h-38V1H120.917 M121.917,0h-40v40h40V0L121.917,0z"/>
</g>
<g>
	<path fill="#FFFFFF" d="M161.917,1v38h-38V1H161.917 M162.917,0h-40v40h40V0L162.917,0z"/>
</g>
<g>
	<path fill="#FFFFFF" d="M202.854,1v38h-38V1H202.854 M203.854,0h-40v40h40V0L203.854,0z"/>
</g>
<g>
	<path fill="#FFFFFF" d="M267.936,1v38h-38V1H267.936 M268.936,0h-40v40h40V0L268.936,0z"/>
</g>
<g>
	<path fill="#FFFFFF" d="M309,1v38h-38V1H309 M310,0h-40v40h40V0L310,0z"/>
</g>
<linearGradient id="Facebook_Letter_Logo._Attribute_as_SimpleIcon_from_Flaticon.com_2_" gradientUnits="userSpaceOnUse" x1="97.2661" y1="55.793" x2="107.5558" y2="66.0826">
	<stop  offset="0" style="stop-color:#F38384"/>
	<stop  offset="1" style="stop-color:#F8E269"/>
</linearGradient>
<path id="Facebook_Letter_Logo._Attribute_as_SimpleIcon_from_Flaticon.com_1_" fill="url(#Facebook_Letter_Logo._Attribute_as_SimpleIcon_from_Flaticon.com_2_)" d="
	M99.388,55.405v2.59h-1.793v3.167h1.793v9.405h3.683v-9.41h2.471c0,0,0.231-1.518,0.344-3.18h-2.8v-2.16
	c0.06-0.406,0.39-0.721,0.8-0.758h2.007v-3.293h-2.734C99.296,51.762,99.388,54.933,99.388,55.405z"/>
<linearGradient id="SVGID_1_" gradientUnits="userSpaceOnUse" x1="175.8535" y1="61" x2="191.8535" y2="61">
	<stop  offset="0" style="stop-color:#F38384"/>
	<stop  offset="1" style="stop-color:#F8E269"/>
</linearGradient>
<path fill="url(#SVGID_1_)" d="M188.762,53h-9.816c-1.705,0.004-3.088,1.387-3.092,3.092v9.816c0.004,1.705,1.387,3.088,3.092,3.092
	h9.816c1.705-0.004,3.088-1.387,3.092-3.092v-9.816C191.85,54.387,190.467,53.004,188.762,53z M189.648,54.844h0.354v2.713
	l-2.699,0.008l-0.01-2.711L189.648,54.844z M181.57,59.357c0.91-1.258,2.668-1.539,3.926-0.631c1.258,0.91,1.541,2.668,0.631,3.926
	s-2.668,1.541-3.926,0.631c-0.732-0.529-1.164-1.379-1.164-2.283C181.039,60.41,181.225,59.836,181.57,59.357z M190.295,65.908
	c-0.002,0.846-0.688,1.531-1.533,1.533h-9.816c-0.846-0.002-1.531-0.688-1.533-1.533v-6.551h2.389
	c-0.916,2.238,0.156,4.793,2.393,5.709c2.236,0.914,4.793-0.156,5.707-2.393c0.436-1.062,0.436-2.254,0-3.316h2.389v6.551H190.295z"
	/>
<linearGradient id="Vk_Logo_Of_Social_Network._Attribute_as_Freepik_from_Flaticon.com_2_" gradientUnits="userSpaceOnUse" x1="136.4482" y1="51.665" x2="152.3209" y2="67.5377">
	<stop  offset="0" style="stop-color:#F38384"/>
	<stop  offset="1" style="stop-color:#F8E269"/>
</linearGradient>
<path id="Vk_Logo_Of_Social_Network._Attribute_as_Freepik_from_Flaticon.com_1_" fill="url(#Vk_Logo_Of_Social_Network._Attribute_as_Freepik_from_Flaticon.com_2_)" d="
	M150.753,60.192c0.299-0.388,0.537-0.699,0.712-0.934c1.262-1.682,1.81-2.757,1.642-3.225l-0.066-0.11
	c-0.092-0.093-0.21-0.157-0.339-0.181c-0.229-0.057-0.467-0.066-0.7-0.027l-3.153,0.021c-0.073-0.007-0.146-0.005-0.219,0.006
	c-0.048,0.005-0.096,0.016-0.142,0.033l-0.055,0.026l-0.043,0.033c-0.047,0.031-0.088,0.069-0.121,0.115
	c-0.045,0.058-0.082,0.123-0.109,0.192c-0.327,0.851-0.719,1.676-1.172,2.467c-0.267,0.454-0.515,0.848-0.744,1.18
	c-0.169,0.26-0.359,0.506-0.569,0.734c-0.129,0.137-0.268,0.263-0.416,0.379c-0.075,0.076-0.177,0.12-0.285,0.121
	c-0.067-0.016-0.129-0.029-0.186-0.045c-0.104-0.066-0.188-0.159-0.246-0.269c-0.068-0.134-0.111-0.278-0.126-0.428
	c-0.02-0.147-0.033-0.296-0.038-0.444c0-0.124,0-0.3,0-0.527c0-0.227,0.011-0.379,0.011-0.461c0-0.277,0.005-0.578,0.017-0.899
	c0.01-0.325,0.02-0.583,0.027-0.773c0.007-0.19,0.011-0.391,0.011-0.6c0.004-0.167-0.009-0.335-0.039-0.5
	c-0.026-0.12-0.064-0.238-0.114-0.351c-0.047-0.108-0.125-0.2-0.225-0.264c-0.114-0.068-0.238-0.118-0.367-0.148
	c-0.485-0.1-0.979-0.148-1.474-0.148c-0.881-0.074-1.768,0.016-2.616,0.264c-0.157,0.083-0.298,0.194-0.416,0.328
	c-0.131,0.161-0.15,0.249-0.055,0.264c0.361,0.025,0.697,0.195,0.931,0.472l0.066,0.132c0.072,0.16,0.123,0.328,0.153,0.5
	c0.055,0.264,0.088,0.531,0.1,0.8c0.037,0.456,0.037,0.915,0,1.371c-0.036,0.381-0.069,0.677-0.1,0.888
	c-0.022,0.179-0.072,0.352-0.147,0.516c-0.039,0.083-0.083,0.164-0.132,0.242c-0.014,0.021-0.032,0.04-0.054,0.055
	c-0.096,0.037-0.197,0.056-0.3,0.055c-0.136-0.014-0.266-0.066-0.372-0.154c-0.168-0.121-0.32-0.264-0.454-0.422
	c-0.198-0.234-0.375-0.486-0.531-0.75c-0.2-0.322-0.404-0.702-0.614-1.142l-0.175-0.317c-0.108-0.205-0.258-0.504-0.448-0.895
	c-0.19-0.392-0.357-0.77-0.5-1.135c-0.049-0.142-0.141-0.264-0.263-0.352l-0.054-0.033c-0.054-0.038-0.114-0.069-0.176-0.093
	c-0.081-0.032-0.165-0.057-0.251-0.071l-3,0.022c-0.229-0.028-0.458,0.049-0.624,0.209l-0.044,0.065
	c-0.025,0.056-0.037,0.116-0.032,0.177c0.004,0.103,0.026,0.204,0.065,0.3c0.438,1.031,0.914,2.025,1.429,2.982
	c0.515,0.958,0.962,1.729,1.341,2.315c0.379,0.585,0.766,1.138,1.16,1.656c0.4,0.519,0.655,0.853,0.783,1s0.228,0.256,0.3,0.329
	l0.274,0.264c0.241,0.23,0.499,0.441,0.772,0.631c0.363,0.261,0.739,0.502,1.127,0.725c0.453,0.254,0.937,0.449,1.44,0.58
	c0.52,0.148,1.06,0.209,1.6,0.182h1.259c0.217-0.005,0.424-0.091,0.58-0.241l0.044-0.055c0.037-0.062,0.064-0.13,0.082-0.2
	c0.026-0.098,0.039-0.199,0.038-0.3c-0.009-0.285,0.014-0.57,0.071-0.851c0.037-0.197,0.1-0.39,0.187-0.57
	c0.062-0.119,0.142-0.229,0.235-0.324c0.069-0.092,0.165-0.162,0.274-0.2c0.221-0.048,0.452,0.017,0.618,0.171
	c0.249,0.182,0.473,0.396,0.668,0.635c0.208,0.254,0.458,0.537,0.75,0.851c0.231,0.259,0.488,0.493,0.766,0.7l0.219,0.132
	c0.18,0.102,0.371,0.183,0.569,0.241c0.196,0.07,0.407,0.089,0.613,0.055l2.8-0.044c0.224,0.013,0.446-0.035,0.646-0.138
	c0.126-0.061,0.225-0.168,0.274-0.299c0.027-0.123,0.027-0.25,0-0.373c-0.015-0.1-0.041-0.197-0.077-0.291
	c-0.021-0.047-0.044-0.094-0.071-0.137c-0.574-0.907-1.279-1.724-2.091-2.425l-0.022-0.022l-0.011-0.01l-0.011-0.012h-0.01
	c-0.311-0.285-0.607-0.585-0.887-0.9c-0.218-0.241-0.277-0.587-0.153-0.888C150.044,61.118,150.375,60.636,150.753,60.192z"/>
<linearGradient id="SVGID_2_" gradientUnits="userSpaceOnUse" x1="53.9175" y1="53.376" x2="69.1665" y2="68.625">
	<stop  offset="0" style="stop-color:#F38384"/>
	<stop  offset="1" style="stop-color:#F8E269"/>
</linearGradient>
<path fill="url(#SVGID_2_)" d="M71.542,56.991c0-1.651-1.338-2.991-2.989-2.991H54.531c-1.651,0-2.99,1.34-2.989,2.991v8.019
	c0,1.651,1.338,2.99,2.989,2.99h14.021c1.651,0,2.99-1.34,2.989-2.991V56.991z M59.542,64.383v-7.531l5.712,3.766L59.542,64.383z"/>
<g>
	<linearGradient id="SVGID_3_" gradientUnits="userSpaceOnUse" x1="8.5806" y1="61.5098" x2="12.8999" y2="65.8291">
		<stop  offset="0" style="stop-color:#F38384"/>
		<stop  offset="1" style="stop-color:#F8E269"/>
	</linearGradient>
	<path fill="url(#SVGID_3_)" d="M10.996,59.592c-0.359,0.124-0.691,0.296-1,0.501v7.165c0.308,0.201,0.646,0.354,1,0.474V59.592z"/>
	<linearGradient id="SVGID_4_" gradientUnits="userSpaceOnUse" x1="11.2241" y1="58.5742" x2="17.8091" y2="65.1591">
		<stop  offset="0" style="stop-color:#F38384"/>
		<stop  offset="1" style="stop-color:#F8E269"/>
	</linearGradient>
	<path fill="url(#SVGID_4_)" d="M13.996,67.971h1v-12.25c-0.049-0.002-0.097-0.01-0.146-0.01c-0.296-0.014-0.579,0.027-0.854,0.091
		V67.971z"/>
	<linearGradient id="SVGID_5_" gradientUnits="userSpaceOnUse" x1="13.21" y1="58.6934" x2="19.7424" y2="65.2258">
		<stop  offset="0" style="stop-color:#F38384"/>
		<stop  offset="1" style="stop-color:#F8E269"/>
	</linearGradient>
	<path fill="url(#SVGID_5_)" d="M15.996,67.971h1V55.989c-0.062,0.103-0.133,0.198-0.189,0.306c-0.253-0.167-0.527-0.293-0.811-0.39
		V67.971z"/>
	<linearGradient id="SVGID_6_" gradientUnits="userSpaceOnUse" x1="7.6606" y1="62.3311" x2="10.333" y2="65.0034">
		<stop  offset="0" style="stop-color:#F38384"/>
		<stop  offset="1" style="stop-color:#F8E269"/>
	</linearGradient>
	<path fill="url(#SVGID_6_)" d="M8.996,60.994c-0.605,0.748-0.976,1.689-0.992,2.71c0.027,1.005,0.403,1.91,0.992,2.635V60.994z"/>
	<linearGradient id="SVGID_7_" gradientUnits="userSpaceOnUse" x1="16.8882" y1="55.8369" x2="29.2239" y2="68.1726">
		<stop  offset="0" style="stop-color:#F38384"/>
		<stop  offset="1" style="stop-color:#F8E269"/>
	</linearGradient>
	<path fill="url(#SVGID_7_)" d="M31.996,63.497c0.032-2.115-1.398-3.974-3.451-4.483c0.005-0.086,0.007-0.174,0.007-0.262
		c-0.112-3.295-2.87-5.877-6.166-5.772c-1.664-0.022-3.229,0.63-4.39,1.75v13.241h9.611c2.425-0.001,4.39-1.966,4.39-4.39
		C31.997,63.554,31.996,63.524,31.996,63.497z"/>
	<linearGradient id="SVGID_8_" gradientUnits="userSpaceOnUse" x1="9.7686" y1="59.3496" x2="15.6933" y2="65.2744">
		<stop  offset="0" style="stop-color:#F38384"/>
		<stop  offset="1" style="stop-color:#F8E269"/>
	</linearGradient>
	<path fill="url(#SVGID_8_)" d="M12.996,56.218c-0.411,0.265-0.75,0.626-1,1.05v10.668c0.172,0.016,0.34,0.043,0.517,0.038
		c0.024-0.001,0.048-0.002,0.072-0.003h0.411V56.218z"/>
</g>
<linearGradient id="pas__2_2_" gradientUnits="userSpaceOnUse" x1="244.9746" y1="61" x2="252.8975" y2="61">
	<stop  offset="0" style="stop-color:#F38384"/>
	<stop  offset="1" style="stop-color:#F8E269"/>
</linearGradient>
<path id="pas__2_1_" fill="url(#pas__2_2_)" d="M245.846,67.973l7.052-6.975l-7.052-6.971l-0.871,0.874l6.166,6.101l-6.166,6.1
	L245.846,67.973z"/>
<linearGradient id="pas__3_2_" gradientUnits="userSpaceOnUse" x1="286.0049" y1="61" x2="293.9941" y2="61">
	<stop  offset="0" style="stop-color:#F38384"/>
	<stop  offset="1" style="stop-color:#F8E269"/>
</linearGradient>
<path id="pas__3_1_" fill="url(#pas__3_2_)" d="M293.111,68.003l-7.106-7.007l7.107-7l0.882,0.876l-6.218,6.124l6.218,6.129
	L293.111,68.003z"/>
<g>
	<linearGradient id="SVGID_9_" gradientUnits="userSpaceOnUse" x1="0" y1="41" x2="39.9999" y2="80.9999">
		<stop  offset="0" style="stop-color:#F38384"/>
		<stop  offset="1" style="stop-color:#F8E269"/>
	</linearGradient>
	<path fill="url(#SVGID_9_)" d="M39,42v38H1V42H39 M40,41H0v40h40V41L40,41z"/>
</g>
<g>
	<linearGradient id="SVGID_10_" gradientUnits="userSpaceOnUse" x1="41.0005" y1="41.001" x2="81.0004" y2="81.0008">
		<stop  offset="0" style="stop-color:#F38384"/>
		<stop  offset="1" style="stop-color:#F8E269"/>
	</linearGradient>
	<path fill="url(#SVGID_10_)" d="M80,42v38H42V42H80 M81,41H41v40h40V41L81,41z"/>
</g>
<g>
	<linearGradient id="SVGID_11_" gradientUnits="userSpaceOnUse" x1="81.917" y1="41" x2="121.9176" y2="81.0006">
		<stop  offset="0" style="stop-color:#F38384"/>
		<stop  offset="1" style="stop-color:#F8E269"/>
	</linearGradient>
	<path fill="url(#SVGID_11_)" d="M120.917,42v38h-38V42H120.917 M121.917,41h-40v40h40V41L121.917,41z"/>
</g>
<g>
	<linearGradient id="SVGID_12_" gradientUnits="userSpaceOnUse" x1="122.9175" y1="41" x2="162.9174" y2="80.9999">
		<stop  offset="0" style="stop-color:#F38384"/>
		<stop  offset="1" style="stop-color:#F8E269"/>
	</linearGradient>
	<path fill="url(#SVGID_12_)" d="M161.917,42v38h-38V42H161.917 M162.917,41h-40v40h40V41L162.917,41z"/>
</g>
<g>
	<linearGradient id="SVGID_13_" gradientUnits="userSpaceOnUse" x1="163.8535" y1="41" x2="203.8534" y2="80.9999">
		<stop  offset="0" style="stop-color:#F38384"/>
		<stop  offset="1" style="stop-color:#F8E269"/>
	</linearGradient>
	<path fill="url(#SVGID_13_)" d="M202.854,42v38h-38V42H202.854 M203.854,41h-40v40h40V41L203.854,41z"/>
</g>
<g>
	<linearGradient id="SVGID_14_" gradientUnits="userSpaceOnUse" x1="228.9365" y1="41.001" x2="268.9364" y2="81.0008">
		<stop  offset="0" style="stop-color:#F38384"/>
		<stop  offset="1" style="stop-color:#F8E269"/>
	</linearGradient>
	<path fill="url(#SVGID_14_)" d="M267.936,42v38h-38V42H267.936 M268.936,41h-40v40h40V41L268.936,41z"/>
</g>
<g>
	<linearGradient id="SVGID_15_" gradientUnits="userSpaceOnUse" x1="270.001" y1="41.001" x2="310.0009" y2="81.0008">
		<stop  offset="0" style="stop-color:#F38384"/>
		<stop  offset="1" style="stop-color:#F8E269"/>
	</linearGradient>
	<path fill="url(#SVGID_15_)" d="M309,42v38h-38V42H309 M310,41h-40v40h40V41L310,41z"/>
</g>
</svg>
