<?xml version="1.0" encoding="utf-8"?>
<!-- Generator: Adobe Illustrator 16.0.0, SVG Export Plug-In . SVG Version: 6.00 Build 0)  -->
<!DOCTYPE svg PUBLIC "-//W3C//DTD SVG 1.1//EN" "http://www.w3.org/Graphics/SVG/1.1/DTD/svg11.dtd">
<svg version="1.1" id="Layer_1" xmlns="http://www.w3.org/2000/svg" xmlns:xlink="http://www.w3.org/1999/xlink" x="0px" y="0px"
	 width="312.8px" height="83.5px" viewBox="-1.3 -1.4 312.8 83.5" style="enable-background:new -1.3 -1.4 312.8 83.5;"
	 xml:space="preserve">
<style type="text/css">
<![CDATA[
	.st0{fill:url(#pas__2_2_);}
	.st1{fill:url(#pas__3_2_);}
	.st2{fill:url(#SVGID_1_);}
	.st3{fill:url(#SVGID_2_);}
	.st4{fill:url(#SVGID_3_);}
	.st5{fill:url(#SVGID_4_);}
	.st6{fill:url(#SVGID_5_);}
	.st7{fill:url(#SVGID_6_);}
	.st8{fill:url(#SVGID_7_);}
	.st9{fill:url(#SVGID_8_);}
	.st10{fill:url(#SVGID_9_);}
	.st11{fill:#FFFFFF;}
	.st12{fill:url(#Facebook_Letter_Logo._Attribute_as_SimpleIcon_from_Flaticon.com_2_);}
	.st13{fill:url(#Vk_Logo_Of_Social_Network._Attribute_as_Freepik_from_Flaticon.com_2_);}
	.st14{fill:url(#SVGID_10_);}
	.st15{fill:url(#SVGID_11_);}
	.st16{fill:url(#SVGID_12_);}
	.st17{fill:url(#SVGID_13_);}
	.st18{fill:url(#SVGID_14_);}
	.st19{fill:url(#SVGID_15_);}
]]>
</style>
<path id="Facebook_Letter_Logo._Attribute_as_SimpleIcon_from_Flaticon.com" class="st11" d="M98.1,13v2.6h-1.8v3.2h1.8v9.4h3.7
	v-9.4h2.5c0,0,0.2-1.5,0.3-3.2h-2.8v-2.2c0.1-0.4,0.4-0.7,0.8-0.8h2V9.4h-2.7C98,9.4,98.1,12.6,98.1,13z"/>
<path class="st11" d="M187.4,10.6h-9.8c-1.7,0-3.1,1.4-3.1,3.1v9.8c0,1.7,1.4,3.1,3.1,3.1h9.8c1.7,0,3.1-1.4,3.1-3.1v-9.8
	C190.5,12,189.1,10.6,187.4,10.6z M188.3,12.5h0.4v2.7l-2.7,0l0-2.7L188.3,12.5z M180.2,17c0.9-1.3,2.7-1.5,3.9-0.6
	c1.3,0.9,1.5,2.7,0.6,3.9c-0.9,1.3-2.7,1.5-3.9,0.6c-0.7-0.5-1.2-1.4-1.2-2.3C179.7,18,179.9,17.5,180.2,17z M189,23.5
	c0,0.8-0.7,1.5-1.5,1.5h-9.8c-0.8,0-1.5-0.7-1.5-1.5V17h2.4c-0.9,2.2,0.2,4.8,2.4,5.7c2.2,0.9,4.8-0.2,5.7-2.4
	c0.4-1.1,0.4-2.3,0-3.3h2.4L189,23.5L189,23.5L189,23.5z"/>
<path id="Vk_Logo_Of_Social_Network._Attribute_as_Freepik_from_Flaticon.com" class="st11" d="M149.4,17.8c0.3-0.4,0.5-0.7,0.7-0.9
	c1.3-1.7,1.8-2.8,1.6-3.2l-0.1-0.1c-0.1-0.1-0.2-0.2-0.3-0.2c-0.2-0.1-0.5-0.1-0.7,0l-3.2,0c-0.1,0-0.1,0-0.2,0c0,0-0.1,0-0.1,0
	l-0.1,0l0,0c0,0-0.1,0.1-0.1,0.1c0,0.1-0.1,0.1-0.1,0.2c-0.3,0.9-0.7,1.7-1.2,2.5c-0.3,0.5-0.5,0.8-0.7,1.2
	c-0.2,0.3-0.4,0.5-0.6,0.7c-0.1,0.1-0.3,0.3-0.4,0.4c-0.1,0.1-0.2,0.1-0.3,0.1c-0.1,0-0.1,0-0.2,0c-0.1-0.1-0.2-0.2-0.2-0.3
	c-0.1-0.1-0.1-0.3-0.1-0.4c0-0.1,0-0.3,0-0.4c0-0.1,0-0.3,0-0.5s0-0.4,0-0.5c0-0.3,0-0.6,0-0.9c0-0.3,0-0.6,0-0.8c0-0.2,0-0.4,0-0.6
	c0-0.2,0-0.3,0-0.5c0-0.1-0.1-0.2-0.1-0.4c0-0.1-0.1-0.2-0.2-0.3c-0.1-0.1-0.2-0.1-0.4-0.1c-0.5-0.1-1-0.1-1.5-0.1
	c-0.9-0.1-1.8,0-2.6,0.3c-0.2,0.1-0.3,0.2-0.4,0.3c-0.1,0.2-0.1,0.2-0.1,0.3c0.4,0,0.7,0.2,0.9,0.5l0.1,0.1c0.1,0.2,0.1,0.3,0.2,0.5
	c0.1,0.3,0.1,0.5,0.1,0.8c0,0.5,0,0.9,0,1.4c0,0.4-0.1,0.7-0.1,0.9c0,0.2-0.1,0.4-0.1,0.5c0,0.1-0.1,0.2-0.1,0.2c0,0,0,0-0.1,0.1
	c-0.1,0-0.2,0.1-0.3,0.1c-0.1,0-0.3-0.1-0.4-0.2c-0.2-0.1-0.3-0.3-0.5-0.4c-0.2-0.2-0.4-0.5-0.5-0.8c-0.2-0.3-0.4-0.7-0.6-1.1
	l-0.2-0.3c-0.1-0.2-0.3-0.5-0.4-0.9c-0.2-0.4-0.4-0.8-0.5-1.1c0-0.1-0.1-0.3-0.3-0.4l-0.1,0c-0.1,0-0.1-0.1-0.2-0.1
	c-0.1,0-0.2-0.1-0.3-0.1l-3,0c-0.2,0-0.5,0-0.6,0.2l0,0.1c0,0.1,0,0.1,0,0.2c0,0.1,0,0.2,0.1,0.3c0.4,1,0.9,2,1.4,3
	c0.5,1,1,1.7,1.3,2.3c0.4,0.6,0.8,1.1,1.2,1.7c0.4,0.5,0.7,0.9,0.8,1s0.2,0.3,0.3,0.3l0.3,0.3c0.2,0.2,0.5,0.4,0.8,0.6
	c0.4,0.3,0.7,0.5,1.1,0.7c0.5,0.3,0.9,0.4,1.4,0.6c0.5,0.1,1.1,0.2,1.6,0.2h1.3c0.2,0,0.4-0.1,0.6-0.2l0-0.1c0-0.1,0.1-0.1,0.1-0.2
	c0-0.1,0-0.2,0-0.3c0-0.3,0-0.6,0.1-0.9c0-0.2,0.1-0.4,0.2-0.6c0.1-0.1,0.1-0.2,0.2-0.3c0.1-0.1,0.2-0.2,0.3-0.2
	c0.2,0,0.5,0,0.6,0.2c0.2,0.2,0.5,0.4,0.7,0.6c0.2,0.3,0.5,0.5,0.8,0.9c0.2,0.3,0.5,0.5,0.8,0.7l0.2,0.1c0.2,0.1,0.4,0.2,0.6,0.2
	c0.2,0.1,0.4,0.1,0.6,0.1l2.8,0c0.2,0,0.4,0,0.6-0.1c0.1-0.1,0.2-0.2,0.3-0.3c0-0.1,0-0.2,0-0.4c0-0.1,0-0.2-0.1-0.3
	c0,0,0-0.1-0.1-0.1c-0.6-0.9-1.3-1.7-2.1-2.4l0,0l0,0l0,0h0c-0.3-0.3-0.6-0.6-0.9-0.9c-0.2-0.2-0.3-0.6-0.2-0.9
	C148.7,18.7,149,18.3,149.4,17.8z"/>
<path class="st11" d="M70.2,14.6c0-1.7-1.3-3-3-3h-14c-1.7,0-3,1.3-3,3v8c0,1.7,1.3,3,3,3h14c1.7,0,3-1.3,3-3L70.2,14.6L70.2,14.6z
	 M58.2,22v-7.5l5.7,3.8L58.2,22z"/>
<g>
	<path class="st11" d="M9.7,17.2c-0.4,0.1-0.7,0.3-1,0.5v7.2c0.3,0.2,0.6,0.4,1,0.5V17.2z"/>
	<path class="st11" d="M12.7,25.6h1V13.3c0,0-0.1,0-0.1,0c-0.3,0-0.6,0-0.9,0.1V25.6z"/>
	<path class="st11" d="M14.7,25.6h1v-12c-0.1,0.1-0.1,0.2-0.2,0.3c-0.3-0.2-0.5-0.3-0.8-0.4V25.6z"/>
	<path class="st11" d="M7.7,18.6c-0.6,0.7-1,1.7-1,2.7c0,1,0.4,1.9,1,2.6V18.6z"/>
	<path class="st11" d="M30.7,21.1c0-2.1-1.4-4-3.5-4.5c0-0.1,0-0.2,0-0.3c-0.1-3.3-2.9-5.9-6.2-5.8c-1.7,0-3.2,0.6-4.4,1.8v13.2h9.6
		C28.7,25.6,30.7,23.6,30.7,21.1C30.7,21.2,30.7,21.1,30.7,21.1z"/>
	<path class="st11" d="M11.7,13.8c-0.4,0.3-0.8,0.6-1,1.1v10.7c0.2,0,0.3,0,0.5,0c0,0,0,0,0.1,0h0.4V13.8z"/>
</g>
<path id="pas__2" class="st11" d="M244.5,25.6l7.1-7l-7.1-7l-0.9,0.9l6.2,6.1l-6.2,6.1L244.5,25.6z"/>
<path id="pas__3" class="st11" d="M291.8,25.6l-7.1-7l7.1-7l0.9,0.9l-6.2,6.1l6.2,6.1L291.8,25.6z"/>
<g>
	<path class="st11" d="M37.7-0.4v38h-38v-38H37.7 M38.7-1.4h-40v40h40V-1.4L38.7-1.4z"/>
</g>
<g>
	<path class="st11" d="M78.7-0.4v38h-38v-38H78.7 M79.7-1.4h-40v40h40V-1.4L79.7-1.4z"/>
</g>
<g>
	<path class="st11" d="M119.6-0.4v38h-38v-38H119.6 M120.6-1.4h-40v40h40V-1.4L120.6-1.4z"/>
</g>
<g>
	<path class="st11" d="M160.6-0.4v38h-38v-38H160.6 M161.6-1.4h-40v40h40V-1.4L161.6-1.4z"/>
</g>
<g>
	<path class="st11" d="M201.5-0.4v38h-38v-38H201.5 M202.5-1.4h-40v40h40V-1.4L202.5-1.4z"/>
</g>
<g>
	<path class="st11" d="M266.6-0.4v38h-38v-38H266.6 M267.6-1.4h-40v40h40V-1.4L267.6-1.4z"/>
</g>
<g>
	<path class="st11" d="M307.7-0.4v38h-38v-38H307.7 M308.7-1.4h-40v40h40V-1.4L308.7-1.4z"/>
</g>
<linearGradient id="Facebook_Letter_Logo._Attribute_as_SimpleIcon_from_Flaticon.com_2_" gradientUnits="userSpaceOnUse" x1="-106.5674" y1="112.4985" x2="-96.2776" y2="102.2088" gradientTransform="matrix(1 0 0 -1 202.5 166.917)">
	<stop  offset="0" style="stop-color:#F38384"/>
	<stop  offset="1" style="stop-color:#F8E269"/>
</linearGradient>
<path id="Facebook_Letter_Logo._Attribute_as_SimpleIcon_from_Flaticon.com_1_" class="st12" d="M98.1,54v2.6h-1.8v3.2h1.8v9.4h3.7
	v-9.4h2.5c0,0,0.2-1.5,0.3-3.2h-2.8v-2.2c0.1-0.4,0.4-0.7,0.8-0.8h2v-3.3h-2.7C98,50.4,98.1,53.6,98.1,54z"/>
<linearGradient id="SVGID_1_" gradientUnits="userSpaceOnUse" x1="-27.9805" y1="107.2925" x2="-11.9805" y2="107.2925" gradientTransform="matrix(1 0 0 -1 202.5 166.917)">
	<stop  offset="0" style="stop-color:#F38384"/>
	<stop  offset="1" style="stop-color:#F8E269"/>
</linearGradient>
<path class="st2" d="M187.4,51.6h-9.8c-1.7,0-3.1,1.4-3.1,3.1v9.8c0,1.7,1.4,3.1,3.1,3.1h9.8c1.7,0,3.1-1.4,3.1-3.1v-9.8
	C190.5,53,189.1,51.6,187.4,51.6z M188.3,53.5h0.4v2.7l-2.7,0l0-2.7L188.3,53.5z M180.2,58c0.9-1.3,2.7-1.5,3.9-0.6
	c1.3,0.9,1.5,2.7,0.6,3.9s-2.7,1.5-3.9,0.6c-0.7-0.5-1.2-1.4-1.2-2.3C179.7,59,179.9,58.5,180.2,58z M189,64.5
	c0,0.8-0.7,1.5-1.5,1.5h-9.8c-0.8,0-1.5-0.7-1.5-1.5V58h2.4c-0.9,2.2,0.2,4.8,2.4,5.7c2.2,0.9,4.8-0.2,5.7-2.4
	c0.4-1.1,0.4-2.3,0-3.3h2.4L189,64.5L189,64.5z"/>
<linearGradient id="Vk_Logo_Of_Social_Network._Attribute_as_Freepik_from_Flaticon.com_2_" gradientUnits="userSpaceOnUse" x1="-67.3848" y1="116.6274" x2="-51.5127" y2="100.7554" gradientTransform="matrix(1 0 0 -1 202.5 166.917)">
	<stop  offset="0" style="stop-color:#F38384"/>
	<stop  offset="1" style="stop-color:#F8E269"/>
</linearGradient>
<path id="Vk_Logo_Of_Social_Network._Attribute_as_Freepik_from_Flaticon.com_1_" class="st13" d="M149.4,58.8
	c0.3-0.4,0.5-0.7,0.7-0.9c1.3-1.7,1.8-2.8,1.6-3.2l-0.1-0.1c-0.1-0.1-0.2-0.2-0.3-0.2c-0.2-0.1-0.5-0.1-0.7,0l-3.2,0
	c-0.1,0-0.1,0-0.2,0c0,0-0.1,0-0.1,0l-0.1,0l0,0c0,0-0.1,0.1-0.1,0.1c0,0.1-0.1,0.1-0.1,0.2c-0.3,0.8-0.7,1.7-1.2,2.5
	c-0.3,0.5-0.5,0.8-0.7,1.2c-0.2,0.3-0.4,0.5-0.6,0.7c-0.1,0.1-0.3,0.3-0.4,0.4c-0.1,0.1-0.2,0.1-0.3,0.1c-0.1,0-0.1,0-0.2,0
	c-0.1-0.1-0.2-0.2-0.2-0.3c-0.1-0.1-0.1-0.3-0.1-0.4c0-0.1,0-0.3,0-0.4c0-0.1,0-0.3,0-0.5c0-0.2,0-0.4,0-0.5c0-0.3,0-0.6,0-0.9
	c0-0.3,0-0.6,0-0.8c0-0.2,0-0.4,0-0.6c0-0.2,0-0.3,0-0.5c0-0.1-0.1-0.2-0.1-0.3c0-0.1-0.1-0.2-0.2-0.3c-0.1-0.1-0.2-0.1-0.4-0.1
	c-0.5-0.1-1-0.1-1.5-0.1c-0.9-0.1-1.8,0-2.6,0.3c-0.2,0.1-0.3,0.2-0.4,0.3c-0.1,0.2-0.1,0.2-0.1,0.3c0.4,0,0.7,0.2,0.9,0.5l0.1,0.1
	c0.1,0.2,0.1,0.3,0.2,0.5c0.1,0.3,0.1,0.5,0.1,0.8c0,0.5,0,0.9,0,1.4c0,0.4-0.1,0.7-0.1,0.9c0,0.2-0.1,0.4-0.1,0.5
	c0,0.1-0.1,0.2-0.1,0.2c0,0,0,0-0.1,0.1c-0.1,0-0.2,0.1-0.3,0.1c-0.1,0-0.3-0.1-0.4-0.2c-0.2-0.1-0.3-0.3-0.5-0.4
	c-0.2-0.2-0.4-0.5-0.5-0.8c-0.2-0.3-0.4-0.7-0.6-1.1l-0.2-0.3c-0.1-0.2-0.3-0.5-0.4-0.9c-0.2-0.4-0.4-0.8-0.5-1.1
	c0-0.1-0.1-0.3-0.3-0.4l-0.1,0c-0.1,0-0.1-0.1-0.2-0.1c-0.1,0-0.2-0.1-0.3-0.1l-3,0c-0.2,0-0.5,0-0.6,0.2l0,0.1c0,0.1,0,0.1,0,0.2
	c0,0.1,0,0.2,0.1,0.3c0.4,1,0.9,2,1.4,3c0.5,1,1,1.7,1.3,2.3s0.8,1.1,1.2,1.7c0.4,0.5,0.7,0.9,0.8,1c0.1,0.1,0.2,0.3,0.3,0.3
	l0.3,0.3c0.2,0.2,0.5,0.4,0.8,0.6c0.4,0.3,0.7,0.5,1.1,0.7c0.5,0.3,0.9,0.4,1.4,0.6c0.5,0.1,1.1,0.2,1.6,0.2h1.3
	c0.2,0,0.4-0.1,0.6-0.2l0-0.1c0-0.1,0.1-0.1,0.1-0.2c0-0.1,0-0.2,0-0.3c0-0.3,0-0.6,0.1-0.9c0-0.2,0.1-0.4,0.2-0.6
	c0.1-0.1,0.1-0.2,0.2-0.3c0.1-0.1,0.2-0.2,0.3-0.2c0.2,0,0.5,0,0.6,0.2c0.2,0.2,0.5,0.4,0.7,0.6c0.2,0.3,0.5,0.5,0.8,0.8
	c0.2,0.3,0.5,0.5,0.8,0.7l0.2,0.1c0.2,0.1,0.4,0.2,0.6,0.2c0.2,0.1,0.4,0.1,0.6,0.1l2.8,0c0.2,0,0.4,0,0.6-0.1
	c0.1-0.1,0.2-0.2,0.3-0.3c0-0.1,0-0.2,0-0.4c0-0.1,0-0.2-0.1-0.3c0,0,0-0.1-0.1-0.1c-0.6-0.9-1.3-1.7-2.1-2.4l0,0l0,0l0,0h0
	c-0.3-0.3-0.6-0.6-0.9-0.9c-0.2-0.2-0.3-0.6-0.2-0.9C148.7,59.7,149,59.3,149.4,58.8z"/>
<linearGradient id="SVGID_2_" gradientUnits="userSpaceOnUse" x1="-149.9155" y1="114.9175" x2="-134.6673" y2="99.6693" gradientTransform="matrix(1 0 0 -1 202.5 166.917)">
	<stop  offset="0" style="stop-color:#F38384"/>
	<stop  offset="1" style="stop-color:#F8E269"/>
</linearGradient>
<path class="st3" d="M70.2,55.6c0-1.7-1.3-3-3-3h-14c-1.7,0-3,1.3-3,3v8c0,1.7,1.3,3,3,3h14c1.7,0,3-1.3,3-3L70.2,55.6L70.2,55.6z
	 M58.2,63v-7.5l5.7,3.8L58.2,63z"/>
<g>
	
		<linearGradient id="SVGID_3_" gradientUnits="userSpaceOnUse" x1="-195.2524" y1="106.7837" x2="-190.9332" y2="102.4644" gradientTransform="matrix(1 0 0 -1 202.5 166.917)">
		<stop  offset="0" style="stop-color:#F38384"/>
		<stop  offset="1" style="stop-color:#F8E269"/>
	</linearGradient>
	<path class="st4" d="M9.7,58.2c-0.4,0.1-0.7,0.3-1,0.5v7.2c0.3,0.2,0.6,0.4,1,0.5V58.2z"/>
	
		<linearGradient id="SVGID_4_" gradientUnits="userSpaceOnUse" x1="-192.6099" y1="109.7183" x2="-186.0249" y2="103.1334" gradientTransform="matrix(1 0 0 -1 202.5 166.917)">
		<stop  offset="0" style="stop-color:#F38384"/>
		<stop  offset="1" style="stop-color:#F8E269"/>
	</linearGradient>
	<path class="st5" d="M12.7,66.6h1V54.3c0,0-0.1,0-0.1,0c-0.3,0-0.6,0-0.9,0.1V66.6z"/>
	
		<linearGradient id="SVGID_5_" gradientUnits="userSpaceOnUse" x1="-190.6245" y1="109.5981" x2="-184.0921" y2="103.0657" gradientTransform="matrix(1 0 0 -1 202.5 166.917)">
		<stop  offset="0" style="stop-color:#F38384"/>
		<stop  offset="1" style="stop-color:#F8E269"/>
	</linearGradient>
	<path class="st6" d="M14.7,66.6h1v-12c-0.1,0.1-0.1,0.2-0.2,0.3c-0.3-0.2-0.5-0.3-0.8-0.4V66.6z"/>
	
		<linearGradient id="SVGID_6_" gradientUnits="userSpaceOnUse" x1="-196.1748" y1="105.9614" x2="-193.5017" y2="103.2884" gradientTransform="matrix(1 0 0 -1 202.5 166.917)">
		<stop  offset="0" style="stop-color:#F38384"/>
		<stop  offset="1" style="stop-color:#F8E269"/>
	</linearGradient>
	<path class="st7" d="M7.7,59.6c-0.6,0.7-1,1.7-1,2.7c0,1,0.4,1.9,1,2.6V59.6z"/>
	
		<linearGradient id="SVGID_7_" gradientUnits="userSpaceOnUse" x1="-186.9458" y1="112.4536" x2="-174.6106" y2="100.1184" gradientTransform="matrix(1 0 0 -1 202.5 166.917)">
		<stop  offset="0" style="stop-color:#F38384"/>
		<stop  offset="1" style="stop-color:#F8E269"/>
	</linearGradient>
	<path class="st8" d="M30.7,62.1c0-2.1-1.4-4-3.5-4.5c0-0.1,0-0.2,0-0.3c-0.1-3.3-2.9-5.9-6.2-5.8c-1.7,0-3.2,0.6-4.4,1.8v13.2h9.6
		C28.7,66.6,30.7,64.6,30.7,62.1C30.7,62.2,30.7,62.1,30.7,62.1z"/>
	
		<linearGradient id="SVGID_8_" gradientUnits="userSpaceOnUse" x1="-194.0654" y1="108.9419" x2="-188.1401" y2="103.0164" gradientTransform="matrix(1 0 0 -1 202.5 166.917)">
		<stop  offset="0" style="stop-color:#F38384"/>
		<stop  offset="1" style="stop-color:#F8E269"/>
	</linearGradient>
	<path class="st9" d="M11.7,54.8c-0.4,0.3-0.8,0.6-1,1.1v10.7c0.2,0,0.3,0,0.5,0c0,0,0,0,0.1,0h0.4V54.8z"/>
</g>
<linearGradient id="pas__2_2_" gradientUnits="userSpaceOnUse" x1="41.1406" y1="107.2915" x2="49.0645" y2="107.2915" gradientTransform="matrix(1 0 0 -1 202.5 166.917)">
	<stop  offset="0" style="stop-color:#F38384"/>
	<stop  offset="1" style="stop-color:#F8E269"/>
</linearGradient>
<path id="pas__2_1_" class="st0" d="M244.5,66.6l7.1-7l-7.1-7l-0.9,0.9l6.2,6.1l-6.2,6.1L244.5,66.6z"/>
<linearGradient id="pas__3_2_" gradientUnits="userSpaceOnUse" x1="82.1719" y1="107.2925" x2="90.1602" y2="107.2925" gradientTransform="matrix(1 0 0 -1 202.5 166.917)">
	<stop  offset="0" style="stop-color:#F38384"/>
	<stop  offset="1" style="stop-color:#F8E269"/>
</linearGradient>
<path id="pas__3_1_" class="st1" d="M291.8,66.6l-7.1-7l7.1-7l0.9,0.9l-6.2,6.1l6.2,6.1L291.8,66.6z"/>
<g>
	
		<linearGradient id="SVGID_9_" gradientUnits="userSpaceOnUse" x1="-203.8335" y1="127.2915" x2="-163.8343" y2="87.2923" gradientTransform="matrix(1 0 0 -1 202.5 166.917)">
		<stop  offset="0" style="stop-color:#F38384"/>
		<stop  offset="1" style="stop-color:#F8E269"/>
	</linearGradient>
	<path class="st10" d="M37.7,40.6v38h-38v-38H37.7 M38.7,39.6h-40v40h40V39.6L38.7,39.6z"/>
</g>
<g>
	
		<linearGradient id="SVGID_10_" gradientUnits="userSpaceOnUse" x1="-162.834" y1="127.2915" x2="-122.8348" y2="87.2924" gradientTransform="matrix(1 0 0 -1 202.5 166.917)">
		<stop  offset="0" style="stop-color:#F38384"/>
		<stop  offset="1" style="stop-color:#F8E269"/>
	</linearGradient>
	<path class="st14" d="M78.7,40.6v38h-38v-38H78.7 M79.7,39.6h-40v40h40V39.6L79.7,39.6z"/>
</g>
<g>
	
		<linearGradient id="SVGID_11_" gradientUnits="userSpaceOnUse" x1="-121.9165" y1="127.2925" x2="-81.9173" y2="87.2933" gradientTransform="matrix(1 0 0 -1 202.5 166.917)">
		<stop  offset="0" style="stop-color:#F38384"/>
		<stop  offset="1" style="stop-color:#F8E269"/>
	</linearGradient>
	<path class="st15" d="M119.6,40.6v38h-38v-38H119.6 M120.6,39.6h-40v40h40V39.6L120.6,39.6z"/>
</g>
<g>
	
		<linearGradient id="SVGID_12_" gradientUnits="userSpaceOnUse" x1="-80.916" y1="127.2925" x2="-40.9161" y2="87.2926" gradientTransform="matrix(1 0 0 -1 202.5 166.917)">
		<stop  offset="0" style="stop-color:#F38384"/>
		<stop  offset="1" style="stop-color:#F8E269"/>
	</linearGradient>
	<path class="st16" d="M160.6,40.6v38h-38v-38H160.6 M161.6,39.6h-40v40h40V39.6L161.6,39.6z"/>
</g>
<g>
	
		<linearGradient id="SVGID_13_" gradientUnits="userSpaceOnUse" x1="-39.9814" y1="127.2915" x2="1.842117e-02" y2="87.2916" gradientTransform="matrix(1 0 0 -1 202.5 166.917)">
		<stop  offset="0" style="stop-color:#F38384"/>
		<stop  offset="1" style="stop-color:#F8E269"/>
	</linearGradient>
	<path class="st17" d="M201.5,40.6v38h-38v-38H201.5 M202.5,39.6h-40v40h40V39.6L202.5,39.6z"/>
</g>
<g>
	
		<linearGradient id="SVGID_14_" gradientUnits="userSpaceOnUse" x1="25.1025" y1="127.2925" x2="65.1025" y2="87.2927" gradientTransform="matrix(1 0 0 -1 202.5 166.917)">
		<stop  offset="0" style="stop-color:#F38384"/>
		<stop  offset="1" style="stop-color:#F8E269"/>
	</linearGradient>
	<path class="st18" d="M266.6,40.6v38h-38v-38H266.6 M267.6,39.6h-40v40h40V39.6L267.6,39.6z"/>
</g>
<g>
	
		<linearGradient id="SVGID_15_" gradientUnits="userSpaceOnUse" x1="66.167" y1="127.2915" x2="106.1662" y2="87.2924" gradientTransform="matrix(1 0 0 -1 202.5 166.917)">
		<stop  offset="0" style="stop-color:#F38384"/>
		<stop  offset="1" style="stop-color:#F8E269"/>
	</linearGradient>
	<path class="st19" d="M307.7,40.6v38h-38v-38H307.7 M308.7,39.6h-40v40h40V39.6L308.7,39.6z"/>
</g>
</svg>
