<?xml version="1.0" encoding="utf-8"?>
<!-- Generator: Adobe Illustrator 16.0.0, SVG Export Plug-In . SVG Version: 6.00 Build 0)  -->
<!DOCTYPE svg PUBLIC "-//W3C//DTD SVG 1.1//EN" "http://www.w3.org/Graphics/SVG/1.1/DTD/svg11.dtd">
<svg version="1.1" id="Layer_1" xmlns="http://www.w3.org/2000/svg" xmlns:xlink="http://www.w3.org/1999/xlink" x="0px" y="0px"
	 width="312.8px" height="83.5px" viewBox="-1.3 -1.4 312.8 83.5" style="enable-background:new -1.3 -1.4 312.8 83.5;"
	 xml:space="preserve">
<style type="text/css">
<![CDATA[
	.st0{fill:url(#pas__2_2_);}
	.st1{fill:url(#pas__3_2_);}
	.st2{fill:url(#SVGID_1_);}
	.st3{fill:url(#SVGID_2_);}
	.st4{fill:url(#SVGID_3_);}
	.st5{fill:url(#SVGID_4_);}
	.st6{fill:url(#SVGID_5_);}
	.st7{fill:url(#SVGID_6_);}
	.st8{fill:url(#SVGID_7_);}
	.st9{fill:url(#SVGID_8_);}
	.st10{fill:url(#SVGID_9_);}
	.st11{fill:#FFFFFF;}
	.st12{fill:url(#Facebook_Letter_Logo._Attribute_as_SimpleIcon_from_Flaticon.com_2_);}
	.st13{fill:url(#Vk_Logo_Of_Social_Network._Attribute_as_Freepik_from_Flaticon.com_2_);}
	.st14{fill:url(#SVGID_10_);}
	.st15{fill:url(#SVGID_11_);}
	.st16{fill:url(#SVGID_12_);}
	.st17{fill:url(#SVGID_13_);}
	.st18{fill:url(#SVGID_14_);}
	.st19{fill:url(#SVGID_15_);}
]]>
</style>
<g>
	<g>
		<path class="st11" d="M9.7,17.2c-0.4,0.1-0.7,0.3-1,0.5v7.2c0.3,0.2,0.6,0.4,1,0.5V17.2z"/>
		<path class="st11" d="M12.7,25.6h1V13.3c0,0-0.1,0-0.1,0c-0.3,0-0.6,0-0.9,0.1V25.6z"/>
		<path class="st11" d="M14.7,25.6h1v-12c-0.1,0.1-0.1,0.2-0.2,0.3c-0.3-0.2-0.5-0.3-0.8-0.4V25.6z"/>
		<path class="st11" d="M7.7,18.6c-0.6,0.7-1,1.7-1,2.7c0,1,0.4,1.9,1,2.6V18.6z"/>
		<path class="st11" d="M30.7,21.1c0-2.1-1.4-4-3.5-4.5c0-0.1,0-0.2,0-0.3c-0.1-3.3-2.9-5.9-6.2-5.8c-1.7,0-3.2,0.6-4.4,1.8v13.2
			h9.6C28.7,25.6,30.7,23.6,30.7,21.1C30.7,21.2,30.7,21.1,30.7,21.1z"/>
		<path class="st11" d="M11.7,13.8c-0.4,0.3-0.8,0.6-1,1.1v10.7c0.2,0,0.3,0,0.5,0c0,0,0,0,0.1,0h0.4V13.8z"/>
	</g>
	<g>
		<path class="st11" d="M37.7-0.4v38h-38v-38H37.7 M38.7-1.4h-40v40h40V-1.4L38.7-1.4z"/>
	</g>
</g>
<g>
	<path class="st11" d="M72.2,14.6c0-1.7-1.3-3-3-3h-14c-1.7,0-3,1.3-3,3v8c0,1.7,1.3,3,3,3h14c1.7,0,3-1.3,3-3L72.2,14.6L72.2,14.6z
		 M60.2,22v-7.5l5.7,3.8L60.2,22z"/>
	<g>
		<path class="st11" d="M80.7-0.4v38h-38v-38H80.7 M81.7-1.4h-40v40h40V-1.4L81.7-1.4z"/>
	</g>
</g>
<g>
	<path id="Facebook_Letter_Logo._Attribute_as_SimpleIcon_from_Flaticon.com" class="st11" d="M103.1,13v2.6h-1.8v3.2h1.8v9.4h3.7
		v-9.4h2.5c0,0,0.2-1.5,0.3-3.2h-2.8v-2.2c0.1-0.4,0.4-0.7,0.8-0.8h2V9.4h-2.7C103,9.4,103.1,12.6,103.1,13z"/>
	<g>
		<path class="st11" d="M124.6-0.4v38h-38v-38H124.6 M125.6-1.4h-40v40h40V-1.4L125.6-1.4z"/>
	</g>
</g>
<g>
	<path id="Vk_Logo_Of_Social_Network._Attribute_as_Freepik_from_Flaticon.com" class="st11" d="M157.4,17.8
		c0.3-0.4,0.5-0.7,0.7-0.9c1.3-1.7,1.8-2.8,1.6-3.2l-0.1-0.1c-0.1-0.1-0.2-0.2-0.3-0.2c-0.2-0.1-0.5-0.1-0.7,0l-3.2,0
		c-0.1,0-0.1,0-0.2,0c0,0-0.1,0-0.1,0l-0.1,0l0,0c0,0-0.1,0.1-0.1,0.1c0,0.1-0.1,0.1-0.1,0.2c-0.3,0.9-0.7,1.7-1.2,2.5
		c-0.3,0.5-0.5,0.8-0.7,1.2c-0.2,0.3-0.4,0.5-0.6,0.7c-0.1,0.1-0.3,0.3-0.4,0.4c-0.1,0.1-0.2,0.1-0.3,0.1c-0.1,0-0.1,0-0.2,0
		c-0.1-0.1-0.2-0.2-0.2-0.3c-0.1-0.1-0.1-0.3-0.1-0.4c0-0.1,0-0.3,0-0.4c0-0.1,0-0.3,0-0.5s0-0.4,0-0.5c0-0.3,0-0.6,0-0.9
		c0-0.3,0-0.6,0-0.8c0-0.2,0-0.4,0-0.6c0-0.2,0-0.3,0-0.5c0-0.1-0.1-0.2-0.1-0.4c0-0.1-0.1-0.2-0.2-0.3c-0.1-0.1-0.2-0.1-0.4-0.1
		c-0.5-0.1-1-0.1-1.5-0.1c-0.9-0.1-1.8,0-2.6,0.3c-0.2,0.1-0.3,0.2-0.4,0.3c-0.1,0.2-0.1,0.2-0.1,0.3c0.4,0,0.7,0.2,0.9,0.5l0.1,0.1
		c0.1,0.2,0.1,0.3,0.2,0.5c0.1,0.3,0.1,0.5,0.1,0.8c0,0.5,0,0.9,0,1.4c0,0.4-0.1,0.7-0.1,0.9c0,0.2-0.1,0.4-0.1,0.5
		c0,0.1-0.1,0.2-0.1,0.2c0,0,0,0-0.1,0.1c-0.1,0-0.2,0.1-0.3,0.1c-0.1,0-0.3-0.1-0.4-0.2c-0.2-0.1-0.3-0.3-0.5-0.4
		c-0.2-0.2-0.4-0.5-0.5-0.8c-0.2-0.3-0.4-0.7-0.6-1.1l-0.2-0.3c-0.1-0.2-0.3-0.5-0.4-0.9c-0.2-0.4-0.4-0.8-0.5-1.1
		c0-0.1-0.1-0.3-0.3-0.4l-0.1,0c-0.1,0-0.1-0.1-0.2-0.1c-0.1,0-0.2-0.1-0.3-0.1l-3,0c-0.2,0-0.5,0-0.6,0.2l0,0.1c0,0.1,0,0.1,0,0.2
		c0,0.1,0,0.2,0.1,0.3c0.4,1,0.9,2,1.4,3c0.5,1,1,1.7,1.3,2.3c0.4,0.6,0.8,1.1,1.2,1.7c0.4,0.5,0.7,0.9,0.8,1s0.2,0.3,0.3,0.3
		l0.3,0.3c0.2,0.2,0.5,0.4,0.8,0.6c0.4,0.3,0.7,0.5,1.1,0.7c0.5,0.3,0.9,0.4,1.4,0.6c0.5,0.1,1.1,0.2,1.6,0.2h1.3
		c0.2,0,0.4-0.1,0.6-0.2l0-0.1c0-0.1,0.1-0.1,0.1-0.2c0-0.1,0-0.2,0-0.3c0-0.3,0-0.6,0.1-0.9c0-0.2,0.1-0.4,0.2-0.6
		c0.1-0.1,0.1-0.2,0.2-0.3c0.1-0.1,0.2-0.2,0.3-0.2c0.2,0,0.5,0,0.6,0.2c0.2,0.2,0.5,0.4,0.7,0.6c0.2,0.3,0.5,0.5,0.8,0.9
		c0.2,0.3,0.5,0.5,0.8,0.7l0.2,0.1c0.2,0.1,0.4,0.2,0.6,0.2c0.2,0.1,0.4,0.1,0.6,0.1l2.8,0c0.2,0,0.4,0,0.6-0.1
		c0.1-0.1,0.2-0.2,0.3-0.3c0-0.1,0-0.2,0-0.4c0-0.1,0-0.2-0.1-0.3c0,0,0-0.1-0.1-0.1c-0.6-0.9-1.3-1.7-2.1-2.4l0,0l0,0l0,0h0
		c-0.3-0.3-0.6-0.6-0.9-0.9c-0.2-0.2-0.3-0.6-0.2-0.9C156.7,18.7,157,18.3,157.4,17.8z"/>
	<g>
		<path class="st11" d="M168.6-0.4v38h-38v-38H168.6 M169.6-1.4h-40v40h40V-1.4L169.6-1.4z"/>
	</g>
</g>
<g>
	<path class="st11" d="M198.4,10.6h-9.8c-1.7,0-3.1,1.4-3.1,3.1v9.8c0,1.7,1.4,3.1,3.1,3.1h9.8c1.7,0,3.1-1.4,3.1-3.1v-9.8
		C201.5,12,200.1,10.6,198.4,10.6z M199.3,12.5h0.4v2.7l-2.7,0l0-2.7L199.3,12.5z M191.2,17c0.9-1.3,2.7-1.5,3.9-0.6
		c1.3,0.9,1.5,2.7,0.6,3.9c-0.9,1.3-2.7,1.5-3.9,0.6c-0.7-0.5-1.2-1.4-1.2-2.3C190.7,18,190.9,17.5,191.2,17z M200,23.5
		c0,0.8-0.7,1.5-1.5,1.5h-9.8c-0.8,0-1.5-0.7-1.5-1.5V17h2.4c-0.9,2.2,0.2,4.8,2.4,5.7c2.2,0.9,4.8-0.2,5.7-2.4
		c0.4-1.1,0.4-2.3,0-3.3h2.4L200,23.5L200,23.5L200,23.5z"/>
	<g>
		<path class="st11" d="M212.5-0.4v38h-38v-38H212.5 M213.5-1.4h-40v40h40V-1.4L213.5-1.4z"/>
	</g>
</g>
<g>
	<path id="pas__2" class="st11" d="M245.5,25.6l7.1-7l-7.1-7l-0.9,0.9l6.2,6.1l-6.2,6.1L245.5,25.6z"/>
	<g>
		<path class="st11" d="M267.6-0.4v38h-38v-38H267.6 M268.6-1.4h-40v40h40V-1.4L268.6-1.4z"/>
	</g>
</g>
<g>
	<path id="pas__3" class="st11" d="M294.6,25.6l-7.1-7l7.1-7l0.9,0.9l-6.2,6.1l6.2,6.1L294.6,25.6z"/>
	<g>
		<path class="st11" d="M310.5-0.4v38h-38v-38H310.5 M311.5-1.4h-40v40h40V-1.4L311.5-1.4z"/>
	</g>
</g>
<g>
	<g>
		
			<linearGradient id="SVGID_1_" gradientUnits="userSpaceOnUse" x1="-195.2529" y1="104.2622" x2="-190.9336" y2="99.9429" gradientTransform="matrix(1 0 0 -1 202.5 166.917)">
			<stop  offset="0" style="stop-color:#F38384"/>
			<stop  offset="1" style="stop-color:#F8E269"/>
		</linearGradient>
		<path class="st2" d="M9.7,60.7c-0.4,0.1-0.7,0.3-1,0.5v7.2c0.3,0.2,0.6,0.4,1,0.5V60.7z"/>
		
			<linearGradient id="SVGID_2_" gradientUnits="userSpaceOnUse" x1="-192.6094" y1="107.1968" x2="-186.0244" y2="100.6119" gradientTransform="matrix(1 0 0 -1 202.5 166.917)">
			<stop  offset="0" style="stop-color:#F38384"/>
			<stop  offset="1" style="stop-color:#F8E269"/>
		</linearGradient>
		<path class="st3" d="M12.7,69.1h1V56.9c0,0-0.1,0-0.1,0c-0.3,0-0.6,0-0.9,0.1V69.1z"/>
		
			<linearGradient id="SVGID_3_" gradientUnits="userSpaceOnUse" x1="-190.625" y1="107.0767" x2="-184.0925" y2="100.5442" gradientTransform="matrix(1 0 0 -1 202.5 166.917)">
			<stop  offset="0" style="stop-color:#F38384"/>
			<stop  offset="1" style="stop-color:#F8E269"/>
		</linearGradient>
		<path class="st4" d="M14.7,69.1h1v-12c-0.1,0.1-0.1,0.2-0.2,0.3c-0.3-0.2-0.5-0.3-0.8-0.4V69.1z"/>
		
			<linearGradient id="SVGID_4_" gradientUnits="userSpaceOnUse" x1="-196.1743" y1="103.439" x2="-193.5012" y2="100.766" gradientTransform="matrix(1 0 0 -1 202.5 166.917)">
			<stop  offset="0" style="stop-color:#F38384"/>
			<stop  offset="1" style="stop-color:#F8E269"/>
		</linearGradient>
		<path class="st5" d="M7.7,62.1c-0.6,0.7-1,1.7-1,2.7c0,1,0.4,1.9,1,2.6V62.1z"/>
		
			<linearGradient id="SVGID_5_" gradientUnits="userSpaceOnUse" x1="-186.9453" y1="109.9321" x2="-174.6102" y2="97.597" gradientTransform="matrix(1 0 0 -1 202.5 166.917)">
			<stop  offset="0" style="stop-color:#F38384"/>
			<stop  offset="1" style="stop-color:#F8E269"/>
		</linearGradient>
		<path class="st6" d="M30.7,64.6c0-2.1-1.4-4-3.5-4.5c0-0.1,0-0.2,0-0.3c-0.1-3.3-2.9-5.9-6.2-5.8c-1.7,0-3.2,0.6-4.4,1.8v13.2h9.6
			C28.7,69.1,30.7,67.2,30.7,64.6C30.7,64.7,30.7,64.7,30.7,64.6z"/>
		
			<linearGradient id="SVGID_6_" gradientUnits="userSpaceOnUse" x1="-194.0649" y1="106.4214" x2="-188.1395" y2="100.4958" gradientTransform="matrix(1 0 0 -1 202.5 166.917)">
			<stop  offset="0" style="stop-color:#F38384"/>
			<stop  offset="1" style="stop-color:#F8E269"/>
		</linearGradient>
		<path class="st7" d="M11.7,57.4c-0.4,0.3-0.8,0.6-1,1.1v10.7c0.2,0,0.3,0,0.5,0c0,0,0,0,0.1,0h0.4V57.4z"/>
	</g>
	<g>
		
			<linearGradient id="SVGID_7_" gradientUnits="userSpaceOnUse" x1="-203.833" y1="124.77" x2="-163.8338" y2="84.7708" gradientTransform="matrix(1 0 0 -1 202.5 166.917)">
			<stop  offset="0" style="stop-color:#F38384"/>
			<stop  offset="1" style="stop-color:#F8E269"/>
		</linearGradient>
		<path class="st8" d="M37.7,43.1v38h-38v-38H37.7 M38.7,42.1h-40v40h40V42.1L38.7,42.1z"/>
	</g>
</g>
<g>
	
		<linearGradient id="SVGID_8_" gradientUnits="userSpaceOnUse" x1="-147.9155" y1="112.395" x2="-132.6676" y2="97.1471" gradientTransform="matrix(1 0 0 -1 202.5 166.917)">
		<stop  offset="0" style="stop-color:#F38384"/>
		<stop  offset="1" style="stop-color:#F8E269"/>
	</linearGradient>
	<path class="st9" d="M72.2,58.1c0-1.7-1.3-3-3-3h-14c-1.7,0-3,1.3-3,3v8c0,1.7,1.3,3,3,3h14c1.7,0,3-1.3,3-3L72.2,58.1L72.2,58.1z
		 M60.2,65.5V58l5.7,3.8L60.2,65.5z"/>
	<g>
		
			<linearGradient id="SVGID_9_" gradientUnits="userSpaceOnUse" x1="-160.8335" y1="124.77" x2="-120.8343" y2="84.7709" gradientTransform="matrix(1 0 0 -1 202.5 166.917)">
			<stop  offset="0" style="stop-color:#F38384"/>
			<stop  offset="1" style="stop-color:#F8E269"/>
		</linearGradient>
		<path class="st10" d="M80.7,43.1v38h-38v-38H80.7 M81.7,42.1h-40v40h40V42.1L81.7,42.1z"/>
	</g>
</g>
<g>
	
		<linearGradient id="Facebook_Letter_Logo._Attribute_as_SimpleIcon_from_Flaticon.com_2_" gradientUnits="userSpaceOnUse" x1="-101.5679" y1="109.9771" x2="-91.2774" y2="99.6867" gradientTransform="matrix(1 0 0 -1 202.5 166.917)">
		<stop  offset="0" style="stop-color:#F38384"/>
		<stop  offset="1" style="stop-color:#F8E269"/>
	</linearGradient>
	<path id="Facebook_Letter_Logo._Attribute_as_SimpleIcon_from_Flaticon.com_1_" class="st12" d="M103.1,56.6v2.6h-1.8v3.2h1.8v9.4
		h3.7v-9.4h2.5c0,0,0.2-1.5,0.3-3.2h-2.8V57c0.1-0.4,0.4-0.7,0.8-0.8h2v-3.3h-2.7C103,52.9,103.1,56.1,103.1,56.6z"/>
	<g>
		
			<linearGradient id="SVGID_10_" gradientUnits="userSpaceOnUse" x1="-116.916" y1="124.77" x2="-76.9175" y2="84.7715" gradientTransform="matrix(1 0 0 -1 202.5 166.917)">
			<stop  offset="0" style="stop-color:#F38384"/>
			<stop  offset="1" style="stop-color:#F8E269"/>
		</linearGradient>
		<path class="st14" d="M124.6,43.1v38h-38v-38H124.6 M125.6,42.1h-40v40h40V42.1L125.6,42.1z"/>
	</g>
</g>
<g>
	
		<linearGradient id="Vk_Logo_Of_Social_Network._Attribute_as_Freepik_from_Flaticon.com_2_" gradientUnits="userSpaceOnUse" x1="-59.3853" y1="114.1069" x2="-43.5125" y2="98.2341" gradientTransform="matrix(1 0 0 -1 202.5 166.917)">
		<stop  offset="0" style="stop-color:#F38384"/>
		<stop  offset="1" style="stop-color:#F8E269"/>
	</linearGradient>
	<path id="Vk_Logo_Of_Social_Network._Attribute_as_Freepik_from_Flaticon.com_1_" class="st13" d="M157.4,61.3
		c0.3-0.4,0.5-0.7,0.7-0.9c1.3-1.7,1.8-2.8,1.6-3.2l-0.1-0.1c-0.1-0.1-0.2-0.2-0.3-0.2c-0.2-0.1-0.5-0.1-0.7,0l-3.2,0
		c-0.1,0-0.1,0-0.2,0c0,0-0.1,0-0.1,0l-0.1,0l0,0c0,0-0.1,0.1-0.1,0.1c0,0.1-0.1,0.1-0.1,0.2c-0.3,0.8-0.7,1.7-1.2,2.5
		c-0.3,0.5-0.5,0.8-0.7,1.2c-0.2,0.3-0.4,0.5-0.6,0.7c-0.1,0.1-0.3,0.3-0.4,0.4c-0.1,0.1-0.2,0.1-0.3,0.1c-0.1,0-0.1,0-0.2,0
		c-0.1-0.1-0.2-0.2-0.2-0.3c-0.1-0.1-0.1-0.3-0.1-0.4c0-0.1,0-0.3,0-0.4c0-0.1,0-0.3,0-0.5c0-0.2,0-0.4,0-0.5c0-0.3,0-0.6,0-0.9
		c0-0.3,0-0.6,0-0.8c0-0.2,0-0.4,0-0.6c0-0.2,0-0.3,0-0.5c0-0.1-0.1-0.2-0.1-0.3c0-0.1-0.1-0.2-0.2-0.3c-0.1-0.1-0.2-0.1-0.4-0.1
		c-0.5-0.1-1-0.1-1.5-0.1c-0.9-0.1-1.8,0-2.6,0.3c-0.2,0.1-0.3,0.2-0.4,0.3c-0.1,0.2-0.1,0.2-0.1,0.3c0.4,0,0.7,0.2,0.9,0.5l0.1,0.1
		c0.1,0.2,0.1,0.3,0.2,0.5c0.1,0.3,0.1,0.5,0.1,0.8c0,0.5,0,0.9,0,1.4c0,0.4-0.1,0.7-0.1,0.9c0,0.2-0.1,0.4-0.1,0.5
		c0,0.1-0.1,0.2-0.1,0.2c0,0,0,0-0.1,0.1c-0.1,0-0.2,0.1-0.3,0.1c-0.1,0-0.3-0.1-0.4-0.2c-0.2-0.1-0.3-0.3-0.5-0.4
		c-0.2-0.2-0.4-0.5-0.5-0.8c-0.2-0.3-0.4-0.7-0.6-1.1l-0.2-0.3c-0.1-0.2-0.3-0.5-0.4-0.9c-0.2-0.4-0.4-0.8-0.5-1.1
		c0-0.1-0.1-0.3-0.3-0.4l-0.1,0c-0.1,0-0.1-0.1-0.2-0.1c-0.1,0-0.2-0.1-0.3-0.1l-3,0c-0.2,0-0.5,0-0.6,0.2l0,0.1c0,0.1,0,0.1,0,0.2
		c0,0.1,0,0.2,0.1,0.3c0.4,1,0.9,2,1.4,3c0.5,1,1,1.7,1.3,2.3s0.8,1.1,1.2,1.7c0.4,0.5,0.7,0.9,0.8,1c0.1,0.1,0.2,0.3,0.3,0.3
		l0.3,0.3c0.2,0.2,0.5,0.4,0.8,0.6c0.4,0.3,0.7,0.5,1.1,0.7c0.5,0.3,0.9,0.4,1.4,0.6c0.5,0.1,1.1,0.2,1.6,0.2h1.3
		c0.2,0,0.4-0.1,0.6-0.2l0-0.1c0-0.1,0.1-0.1,0.1-0.2c0-0.1,0-0.2,0-0.3c0-0.3,0-0.6,0.1-0.9c0-0.2,0.1-0.4,0.2-0.6
		c0.1-0.1,0.1-0.2,0.2-0.3c0.1-0.1,0.2-0.2,0.3-0.2c0.2,0,0.5,0,0.6,0.2c0.2,0.2,0.5,0.4,0.7,0.6c0.2,0.3,0.5,0.5,0.8,0.8
		c0.2,0.3,0.5,0.5,0.8,0.7l0.2,0.1c0.2,0.1,0.4,0.2,0.6,0.2c0.2,0.1,0.4,0.1,0.6,0.1l2.8,0c0.2,0,0.4,0,0.6-0.1
		c0.1-0.1,0.2-0.2,0.3-0.3c0-0.1,0-0.2,0-0.4c0-0.1,0-0.2-0.1-0.3c0,0,0-0.1-0.1-0.1c-0.6-0.9-1.3-1.7-2.1-2.4l0,0l0,0l0,0h0
		c-0.3-0.3-0.6-0.6-0.9-0.9c-0.2-0.2-0.3-0.6-0.2-0.9C156.7,62.3,157,61.8,157.4,61.3z"/>
	<g>
		
			<linearGradient id="SVGID_11_" gradientUnits="userSpaceOnUse" x1="-72.9155" y1="124.771" x2="-32.9163" y2="84.7718" gradientTransform="matrix(1 0 0 -1 202.5 166.917)">
			<stop  offset="0" style="stop-color:#F38384"/>
			<stop  offset="1" style="stop-color:#F8E269"/>
		</linearGradient>
		<path class="st15" d="M168.6,43.1v38h-38v-38H168.6 M169.6,42.1h-40v40h40V42.1L169.6,42.1z"/>
	</g>
</g>
<g>
	
		<linearGradient id="SVGID_12_" gradientUnits="userSpaceOnUse" x1="-16.9805" y1="104.771" x2="-0.9805" y2="104.771" gradientTransform="matrix(1 0 0 -1 202.5 166.917)">
		<stop  offset="0" style="stop-color:#F38384"/>
		<stop  offset="1" style="stop-color:#F8E269"/>
	</linearGradient>
	<path class="st16" d="M198.4,54.1h-9.8c-1.7,0-3.1,1.4-3.1,3.1v9.8c0,1.7,1.4,3.1,3.1,3.1h9.8c1.7,0,3.1-1.4,3.1-3.1v-9.8
		C201.5,55.5,200.1,54.1,198.4,54.1z M199.3,56h0.4v2.7l-2.7,0l0-2.7L199.3,56z M191.2,60.5c0.9-1.3,2.7-1.5,3.9-0.6
		c1.3,0.9,1.5,2.7,0.6,3.9s-2.7,1.5-3.9,0.6c-0.7-0.5-1.2-1.4-1.2-2.3C190.7,61.6,190.9,61,191.2,60.5z M200,67.1
		c0,0.8-0.7,1.5-1.5,1.5h-9.8c-0.8,0-1.5-0.7-1.5-1.5v-6.6h2.4c-0.9,2.2,0.2,4.8,2.4,5.7c2.2,0.9,4.8-0.2,5.7-2.4
		c0.4-1.1,0.4-2.3,0-3.3h2.4L200,67.1L200,67.1z"/>
	<g>
		
			<linearGradient id="SVGID_13_" gradientUnits="userSpaceOnUse" x1="-28.9814" y1="124.769" x2="11.0177" y2="84.7699" gradientTransform="matrix(1 0 0 -1 202.5 166.917)">
			<stop  offset="0" style="stop-color:#F38384"/>
			<stop  offset="1" style="stop-color:#F8E269"/>
		</linearGradient>
		<path class="st17" d="M212.5,43.1v38h-38v-38H212.5 M213.5,42.1h-40v40h40V42.1L213.5,42.1z"/>
	</g>
</g>
<g>
	
		<linearGradient id="pas__2_2_" gradientUnits="userSpaceOnUse" x1="42.1406" y1="104.77" x2="50.0645" y2="104.77" gradientTransform="matrix(1 0 0 -1 202.5 166.917)">
		<stop  offset="0" style="stop-color:#F38384"/>
		<stop  offset="1" style="stop-color:#F8E269"/>
	</linearGradient>
	<path id="pas__2_1_" class="st0" d="M245.5,69.1l7.1-7l-7.1-7l-0.9,0.9l6.2,6.1l-6.2,6.1L245.5,69.1z"/>
	<g>
		
			<linearGradient id="SVGID_14_" gradientUnits="userSpaceOnUse" x1="26.1025" y1="124.77" x2="66.1018" y2="84.7709" gradientTransform="matrix(1 0 0 -1 202.5 166.917)">
			<stop  offset="0" style="stop-color:#F38384"/>
			<stop  offset="1" style="stop-color:#F8E269"/>
		</linearGradient>
		<path class="st18" d="M267.6,43.1v38h-38v-38H267.6 M268.6,42.1h-40v40h40V42.1L268.6,42.1z"/>
	</g>
</g>
<g>
	
		<linearGradient id="pas__3_2_" gradientUnits="userSpaceOnUse" x1="85.0059" y1="104.771" x2="92.9941" y2="104.771" gradientTransform="matrix(1 0 0 -1 202.5 166.917)">
		<stop  offset="0" style="stop-color:#F38384"/>
		<stop  offset="1" style="stop-color:#F8E269"/>
	</linearGradient>
	<path id="pas__3_1_" class="st1" d="M294.6,69.1l-7.1-7l7.1-7l0.9,0.9l-6.2,6.1l6.2,6.1L294.6,69.1z"/>
	<g>
		
			<linearGradient id="SVGID_15_" gradientUnits="userSpaceOnUse" x1="69.0005" y1="124.77" x2="108.999" y2="84.7716" gradientTransform="matrix(1 0 0 -1 202.5 166.917)">
			<stop  offset="0" style="stop-color:#F38384"/>
			<stop  offset="1" style="stop-color:#F8E269"/>
		</linearGradient>
		<path class="st19" d="M310.5,43.1v38h-38v-38H310.5 M311.5,42.1h-40v40h40V42.1L311.5,42.1z"/>
	</g>
</g>
</svg>
