<?xml version="1.0" encoding="utf-8"?>
<!-- Generator: Adobe Illustrator 16.0.0, SVG Export Plug-In . SVG Version: 6.00 Build 0)  -->
<!DOCTYPE svg PUBLIC "-//W3C//DTD SVG 1.1//EN" "http://www.w3.org/Graphics/SVG/1.1/DTD/svg11.dtd">
<svg version="1.1" id="Layer_1" xmlns="http://www.w3.org/2000/svg" xmlns:xlink="http://www.w3.org/1999/xlink" x="0px" y="0px"
	 width="310px" height="81.958px" viewBox="0 0 310 81.958" enable-background="new 0 0 310 81.958" xml:space="preserve">
<path id="Facebook_Letter_Logo._Attribute_as_SimpleIcon_from_Flaticon.com" fill="#FFFFFF" d="M101.388,14.405v2.59h-1.793v3.167
	h1.793v9.405h3.683v-9.41h2.471c0,0,0.231-1.518,0.344-3.18h-2.8v-2.16c0.06-0.406,0.39-0.721,0.8-0.758h2.007v-3.293h-2.734
	C101.296,10.762,101.388,13.933,101.388,14.405z"/>
<path fill="#FFFFFF" d="M192.762,12h-9.816c-1.704,0.004-3.088,1.387-3.092,3.092v9.816c0.004,1.705,1.388,3.088,3.092,3.092h9.816
	c1.705-0.004,3.088-1.387,3.092-3.092v-9.816C195.85,13.387,194.467,12.004,192.762,12z M193.648,13.844h0.354v2.713l-2.699,0.008
	l-0.01-2.711L193.648,13.844z M185.57,18.358c0.91-1.258,2.668-1.54,3.926-0.631c1.258,0.91,1.541,2.667,0.631,3.925
	c-0.91,1.258-2.668,1.541-3.926,0.631c-0.732-0.529-1.164-1.379-1.164-2.283C185.039,19.411,185.225,18.836,185.57,18.358z
	 M194.295,24.908c-0.002,0.846-0.688,1.531-1.533,1.533h-9.816c-0.846-0.002-1.53-0.688-1.532-1.533v-6.55h2.389
	c-0.916,2.238,0.156,4.792,2.394,5.708c2.236,0.914,4.793-0.156,5.707-2.393c0.436-1.062,0.436-2.253,0-3.316h2.389v6.55
	L194.295,24.908L194.295,24.908z"/>
<path id="Vk_Logo_Of_Social_Network._Attribute_as_Freepik_from_Flaticon.com" fill="#FFFFFF" d="M153.753,19.192
	c0.299-0.388,0.537-0.699,0.712-0.934c1.263-1.682,1.811-2.757,1.643-3.225l-0.066-0.11c-0.092-0.093-0.21-0.157-0.339-0.181
	c-0.229-0.057-0.467-0.066-0.7-0.027l-3.153,0.021c-0.073-0.007-0.146-0.005-0.219,0.006c-0.048,0.005-0.096,0.016-0.142,0.033
	l-0.055,0.026l-0.043,0.033c-0.047,0.031-0.088,0.069-0.121,0.115c-0.045,0.058-0.082,0.123-0.109,0.192
	c-0.327,0.851-0.719,1.676-1.172,2.467c-0.267,0.454-0.515,0.848-0.744,1.18c-0.169,0.26-0.359,0.506-0.569,0.734
	c-0.129,0.137-0.268,0.263-0.416,0.379c-0.075,0.076-0.177,0.12-0.285,0.121c-0.067-0.016-0.129-0.029-0.186-0.045
	c-0.104-0.066-0.188-0.159-0.246-0.269c-0.068-0.134-0.111-0.278-0.126-0.428c-0.02-0.147-0.033-0.296-0.038-0.444
	c0-0.124,0-0.3,0-0.527s0.011-0.379,0.011-0.461c0-0.277,0.005-0.578,0.017-0.899c0.01-0.325,0.02-0.583,0.027-0.773
	c0.007-0.19,0.011-0.391,0.011-0.6c0.004-0.167-0.009-0.335-0.039-0.5c-0.026-0.12-0.064-0.238-0.114-0.351
	c-0.047-0.108-0.125-0.2-0.225-0.264c-0.114-0.068-0.238-0.118-0.367-0.148c-0.485-0.1-0.979-0.148-1.474-0.148
	c-0.881-0.074-1.768,0.016-2.616,0.264c-0.157,0.083-0.298,0.194-0.416,0.328c-0.131,0.161-0.15,0.249-0.055,0.264
	c0.361,0.025,0.697,0.195,0.931,0.472l0.066,0.132c0.072,0.16,0.123,0.328,0.153,0.5c0.055,0.264,0.088,0.531,0.1,0.8
	c0.037,0.456,0.037,0.915,0,1.371c-0.036,0.381-0.069,0.677-0.1,0.888c-0.022,0.179-0.072,0.352-0.147,0.516
	c-0.039,0.083-0.083,0.164-0.132,0.242c-0.014,0.021-0.032,0.04-0.054,0.055c-0.096,0.037-0.197,0.056-0.3,0.055
	c-0.136-0.014-0.266-0.066-0.372-0.154c-0.168-0.121-0.32-0.264-0.454-0.422c-0.198-0.234-0.375-0.486-0.531-0.75
	c-0.2-0.322-0.404-0.702-0.614-1.142l-0.175-0.317c-0.108-0.205-0.258-0.504-0.448-0.895c-0.19-0.392-0.357-0.77-0.5-1.135
	c-0.049-0.142-0.141-0.264-0.263-0.352l-0.054-0.033c-0.054-0.038-0.114-0.069-0.176-0.093c-0.081-0.032-0.165-0.057-0.251-0.071
	l-3,0.022c-0.229-0.028-0.458,0.049-0.624,0.209l-0.044,0.065c-0.025,0.056-0.037,0.116-0.032,0.177
	c0.004,0.103,0.026,0.204,0.065,0.3c0.438,1.031,0.914,2.025,1.429,2.982c0.515,0.958,0.962,1.729,1.341,2.315
	c0.379,0.585,0.766,1.138,1.16,1.656c0.4,0.519,0.655,0.853,0.783,1s0.228,0.256,0.3,0.329l0.274,0.264
	c0.241,0.23,0.499,0.441,0.772,0.631c0.363,0.261,0.739,0.502,1.127,0.725c0.453,0.254,0.937,0.449,1.44,0.58
	c0.52,0.148,1.06,0.209,1.6,0.182h1.259c0.217-0.005,0.424-0.091,0.58-0.241l0.044-0.055c0.037-0.062,0.064-0.13,0.082-0.2
	c0.026-0.098,0.039-0.199,0.038-0.3c-0.009-0.285,0.014-0.57,0.071-0.851c0.037-0.197,0.1-0.39,0.187-0.57
	c0.062-0.119,0.142-0.229,0.235-0.324c0.069-0.092,0.165-0.162,0.274-0.2c0.221-0.048,0.452,0.017,0.618,0.171
	c0.249,0.182,0.473,0.396,0.668,0.635c0.208,0.254,0.458,0.537,0.75,0.851c0.231,0.259,0.488,0.493,0.766,0.7l0.219,0.132
	c0.18,0.102,0.371,0.183,0.569,0.241c0.196,0.07,0.407,0.089,0.613,0.055l2.8-0.044c0.224,0.013,0.446-0.035,0.646-0.138
	c0.126-0.061,0.226-0.168,0.274-0.299c0.026-0.123,0.026-0.25,0-0.373c-0.016-0.1-0.041-0.197-0.077-0.291
	c-0.021-0.047-0.044-0.094-0.071-0.137c-0.574-0.907-1.279-1.724-2.091-2.425l-0.022-0.022l-0.011-0.01l-0.011-0.012h-0.01
	c-0.311-0.285-0.607-0.585-0.887-0.9c-0.218-0.241-0.277-0.587-0.153-0.888C153.044,20.118,153.375,19.636,153.753,19.192z"/>
<path fill="#FFFFFF" d="M72.542,15.991c0-1.651-1.338-2.991-2.989-2.991H55.531c-1.651,0-2.99,1.34-2.989,2.991v8.019
	c0,1.651,1.338,2.99,2.989,2.99h14.021c1.651,0,2.99-1.34,2.989-2.991L72.542,15.991L72.542,15.991z M60.542,23.383v-7.531
	l5.712,3.766L60.542,23.383z"/>
<g>
	<path fill="#FFFFFF" d="M10.996,18.592c-0.359,0.124-0.691,0.296-1,0.501v7.165c0.308,0.201,0.646,0.354,1,0.474V18.592z"/>
	<path fill="#FFFFFF" d="M13.996,26.971h1v-12.25c-0.049-0.002-0.097-0.01-0.146-0.01c-0.296-0.014-0.579,0.027-0.854,0.091V26.971z
		"/>
	<path fill="#FFFFFF" d="M15.996,26.971h1V14.989c-0.062,0.103-0.133,0.198-0.189,0.306c-0.253-0.167-0.527-0.293-0.811-0.39V26.971
		z"/>
	<path fill="#FFFFFF" d="M8.996,19.994c-0.605,0.748-0.976,1.689-0.992,2.71c0.027,1.005,0.403,1.91,0.992,2.635V19.994z"/>
	<path fill="#FFFFFF" d="M31.996,22.497c0.032-2.115-1.398-3.974-3.451-4.483c0.005-0.086,0.007-0.174,0.007-0.262
		c-0.112-3.295-2.87-5.877-6.166-5.772c-1.664-0.022-3.229,0.63-4.39,1.75v13.241h9.611c2.425-0.001,4.39-1.966,4.39-4.39
		C31.997,22.554,31.996,22.524,31.996,22.497z"/>
	<path fill="#FFFFFF" d="M12.996,15.218c-0.411,0.265-0.75,0.626-1,1.05v10.668c0.172,0.016,0.34,0.043,0.517,0.038
		c0.024-0.001,0.048-0.002,0.072-0.003h0.411V15.218z"/>
</g>
<path id="pas__2" fill="#FFFFFF" d="M244.846,26.973l7.053-6.975l-7.053-6.971l-0.871,0.874l6.166,6.101l-6.166,6.1L244.846,26.973z
	"/>
<path id="pas__3" fill="#FFFFFF" d="M293.111,27.003l-7.106-7.007l7.106-7l0.883,0.876l-6.219,6.124l6.219,6.129L293.111,27.003z"/>
<g>
	<path fill="#FFFFFF" d="M39,1v38H1V1H39 M40,0H0v40h40V0L40,0z"/>
</g>
<g>
	<path fill="#FFFFFF" d="M81,1v38H43V1H81 M82,0H42v40h40V0L82,0z"/>
</g>
<g>
	<path fill="#FFFFFF" d="M122.917,1v38h-38V1H122.917 M123.917,0h-40v40h40V0L123.917,0z"/>
</g>
<g>
	<path fill="#FFFFFF" d="M164.917,1v38h-38V1H164.917 M165.917,0h-40v40h40V0L165.917,0z"/>
</g>
<g>
	<path fill="#FFFFFF" d="M206.854,1v38h-38V1H206.854 M207.854,0h-40v40h40V0L207.854,0z"/>
</g>
<g>
	<path fill="#FFFFFF" d="M266.936,1v38h-38V1H266.936 M267.936,0h-40v40h40V0L267.936,0z"/>
</g>
<g>
	<path fill="#FFFFFF" d="M309,1v38h-38V1H309 M310,0h-40v40h40V0L310,0z"/>
</g>
<linearGradient id="Facebook_Letter_Logo._Attribute_as_SimpleIcon_from_Flaticon.com_2_" gradientUnits="userSpaceOnUse" x1="-103.2339" y1="110.1245" x2="-92.9436" y2="99.8343" gradientTransform="matrix(1 0 0 -1 202.5 166.917)">
	<stop  offset="0" style="stop-color:#F38384"/>
	<stop  offset="1" style="stop-color:#F8E269"/>
</linearGradient>
<path id="Facebook_Letter_Logo._Attribute_as_SimpleIcon_from_Flaticon.com_1_" fill="url(#Facebook_Letter_Logo._Attribute_as_SimpleIcon_from_Flaticon.com_2_)" d="
	M101.388,56.406v2.59h-1.793v3.166h1.793v9.405h3.683v-9.409h2.471c0,0,0.231-1.519,0.344-3.181h-2.8v-2.16
	c0.06-0.405,0.39-0.721,0.8-0.758h2.007v-3.293h-2.734C101.296,52.762,101.388,55.933,101.388,56.406z"/>
<linearGradient id="SVGID_1_" gradientUnits="userSpaceOnUse" x1="-22.6465" y1="104.9175" x2="-6.6465" y2="104.9175" gradientTransform="matrix(1 0 0 -1 202.5 166.917)">
	<stop  offset="0" style="stop-color:#F38384"/>
	<stop  offset="1" style="stop-color:#F8E269"/>
</linearGradient>
<path fill="url(#SVGID_1_)" d="M192.762,54h-9.816c-1.704,0.004-3.088,1.388-3.092,3.092v9.816c0.004,1.705,1.388,3.088,3.092,3.092
	h9.816c1.705-0.004,3.088-1.387,3.092-3.092v-9.816C195.85,55.387,194.467,54.003,192.762,54z M193.648,55.843h0.354v2.714
	l-2.699,0.008l-0.01-2.711L193.648,55.843z M185.57,60.357c0.91-1.258,2.668-1.539,3.926-0.631c1.258,0.91,1.541,2.668,0.631,3.926
	s-2.668,1.541-3.926,0.631c-0.732-0.529-1.164-1.379-1.164-2.283C185.039,61.41,185.225,60.835,185.57,60.357z M194.295,66.908
	c-0.002,0.846-0.688,1.531-1.533,1.533h-9.816c-0.846-0.002-1.53-0.688-1.532-1.533v-6.551h2.389
	c-0.916,2.238,0.156,4.793,2.394,5.709c2.236,0.914,4.793-0.156,5.707-2.393c0.436-1.062,0.436-2.254,0-3.316h2.389v6.551H194.295z"
	/>
<linearGradient id="Vk_Logo_Of_Social_Network._Attribute_as_Freepik_from_Flaticon.com_2_" gradientUnits="userSpaceOnUse" x1="-63.0522" y1="114.2534" x2="-47.1793" y2="98.3805" gradientTransform="matrix(1 0 0 -1 202.5 166.917)">
	<stop  offset="0" style="stop-color:#F38384"/>
	<stop  offset="1" style="stop-color:#F8E269"/>
</linearGradient>
<path id="Vk_Logo_Of_Social_Network._Attribute_as_Freepik_from_Flaticon.com_1_" fill="url(#Vk_Logo_Of_Social_Network._Attribute_as_Freepik_from_Flaticon.com_2_)" d="
	M153.753,61.192c0.299-0.388,0.537-0.698,0.712-0.935c1.263-1.682,1.811-2.756,1.643-3.225l-0.066-0.109
	c-0.092-0.094-0.21-0.157-0.339-0.182c-0.229-0.057-0.467-0.066-0.7-0.027l-3.153,0.021c-0.073-0.007-0.146-0.005-0.219,0.006
	c-0.048,0.006-0.096,0.016-0.142,0.033l-0.055,0.025l-0.043,0.033c-0.047,0.031-0.088,0.069-0.121,0.115
	c-0.045,0.059-0.082,0.123-0.109,0.192c-0.327,0.851-0.719,1.676-1.172,2.467c-0.267,0.454-0.515,0.849-0.744,1.181
	c-0.169,0.26-0.359,0.506-0.569,0.733c-0.129,0.138-0.268,0.263-0.416,0.379c-0.075,0.076-0.177,0.12-0.285,0.121
	c-0.067-0.017-0.129-0.028-0.186-0.045c-0.104-0.065-0.188-0.159-0.246-0.269c-0.068-0.135-0.111-0.278-0.126-0.428
	c-0.02-0.148-0.033-0.297-0.038-0.445c0-0.123,0-0.299,0-0.526s0.011-0.379,0.011-0.461c0-0.277,0.005-0.578,0.017-0.899
	c0.01-0.324,0.02-0.582,0.027-0.773c0.007-0.189,0.011-0.391,0.011-0.6c0.004-0.166-0.009-0.334-0.039-0.5
	c-0.026-0.119-0.064-0.238-0.114-0.351c-0.047-0.108-0.125-0.2-0.225-0.265c-0.114-0.067-0.238-0.117-0.367-0.147
	c-0.485-0.101-0.979-0.147-1.474-0.147c-0.881-0.074-1.768,0.016-2.616,0.264c-0.157,0.083-0.298,0.193-0.416,0.328
	c-0.131,0.16-0.15,0.248-0.055,0.264c0.361,0.025,0.697,0.195,0.931,0.473l0.066,0.131c0.072,0.16,0.123,0.328,0.153,0.5
	c0.055,0.265,0.088,0.531,0.1,0.801c0.037,0.455,0.037,0.914,0,1.371c-0.036,0.381-0.069,0.677-0.1,0.888
	c-0.022,0.179-0.072,0.353-0.147,0.517c-0.039,0.082-0.083,0.164-0.132,0.241c-0.014,0.021-0.032,0.04-0.054,0.056
	c-0.096,0.037-0.197,0.056-0.3,0.055c-0.136-0.014-0.266-0.066-0.372-0.154c-0.168-0.121-0.32-0.264-0.454-0.422
	c-0.198-0.234-0.375-0.486-0.531-0.75c-0.2-0.322-0.404-0.702-0.614-1.143l-0.175-0.316c-0.108-0.205-0.258-0.504-0.448-0.895
	c-0.19-0.393-0.357-0.771-0.5-1.136c-0.049-0.142-0.141-0.264-0.263-0.353l-0.054-0.032c-0.054-0.038-0.114-0.069-0.176-0.093
	c-0.081-0.032-0.165-0.057-0.251-0.071l-3,0.022c-0.229-0.028-0.458,0.049-0.624,0.209l-0.044,0.064
	c-0.025,0.057-0.037,0.116-0.032,0.178c0.004,0.103,0.026,0.203,0.065,0.299c0.438,1.031,0.914,2.025,1.429,2.982
	c0.515,0.958,0.962,1.729,1.341,2.314s0.766,1.139,1.16,1.656c0.4,0.52,0.655,0.854,0.783,1c0.128,0.147,0.228,0.256,0.3,0.33
	l0.274,0.264c0.241,0.229,0.499,0.441,0.772,0.631c0.363,0.261,0.739,0.502,1.127,0.725c0.453,0.254,0.937,0.449,1.44,0.58
	c0.52,0.148,1.06,0.209,1.6,0.182h1.259c0.217-0.004,0.424-0.09,0.58-0.24l0.044-0.055c0.037-0.062,0.064-0.131,0.082-0.201
	c0.026-0.098,0.039-0.198,0.038-0.299c-0.009-0.285,0.014-0.57,0.071-0.852c0.037-0.197,0.1-0.391,0.187-0.57
	c0.062-0.119,0.142-0.229,0.235-0.324c0.069-0.092,0.165-0.162,0.274-0.199c0.221-0.049,0.452,0.017,0.618,0.171
	c0.249,0.182,0.473,0.396,0.668,0.635c0.208,0.254,0.458,0.537,0.75,0.851c0.231,0.26,0.488,0.494,0.766,0.701l0.219,0.131
	c0.18,0.103,0.371,0.184,0.569,0.242c0.196,0.069,0.407,0.088,0.613,0.055l2.8-0.045c0.224,0.014,0.446-0.035,0.646-0.138
	c0.126-0.062,0.226-0.168,0.274-0.299c0.026-0.123,0.026-0.25,0-0.373c-0.016-0.101-0.041-0.196-0.077-0.291
	c-0.021-0.047-0.044-0.094-0.071-0.137c-0.574-0.907-1.279-1.724-2.091-2.425l-0.022-0.022l-0.011-0.01l-0.011-0.013h-0.01
	c-0.311-0.285-0.607-0.584-0.887-0.899c-0.218-0.241-0.277-0.587-0.153-0.888C153.044,62.119,153.375,61.636,153.753,61.192z"/>
<linearGradient id="SVGID_2_" gradientUnits="userSpaceOnUse" x1="-147.5825" y1="112.5415" x2="-132.3342" y2="97.2931" gradientTransform="matrix(1 0 0 -1 202.5 166.917)">
	<stop  offset="0" style="stop-color:#F38384"/>
	<stop  offset="1" style="stop-color:#F8E269"/>
</linearGradient>
<path fill="url(#SVGID_2_)" d="M72.542,57.992c0-1.652-1.338-2.992-2.989-2.992H55.531c-1.651,0-2.99,1.34-2.989,2.992v8.018
	c0,1.652,1.338,2.99,2.989,2.99h14.021c1.651,0,2.99-1.34,2.989-2.99L72.542,57.992L72.542,57.992z M60.542,65.382v-7.53
	l5.712,3.767L60.542,65.382z"/>
<g>
	
		<linearGradient id="SVGID_3_" gradientUnits="userSpaceOnUse" x1="-193.9194" y1="104.4087" x2="-189.5995" y2="100.0887" gradientTransform="matrix(1 0 0 -1 202.5 166.917)">
		<stop  offset="0" style="stop-color:#F38384"/>
		<stop  offset="1" style="stop-color:#F8E269"/>
	</linearGradient>
	<path fill="url(#SVGID_3_)" d="M10.996,60.591c-0.359,0.125-0.691,0.297-1,0.502v7.164c0.308,0.201,0.646,0.354,1,0.475V60.591z"/>
	
		<linearGradient id="SVGID_4_" gradientUnits="userSpaceOnUse" x1="-191.2749" y1="107.3433" x2="-184.6913" y2="100.7598" gradientTransform="matrix(1 0 0 -1 202.5 166.917)">
		<stop  offset="0" style="stop-color:#F38384"/>
		<stop  offset="1" style="stop-color:#F8E269"/>
	</linearGradient>
	<path fill="url(#SVGID_4_)" d="M13.996,68.971h1v-12.25c-0.049-0.003-0.097-0.011-0.146-0.011
		c-0.296-0.014-0.579,0.027-0.854,0.092V68.971z"/>
	
		<linearGradient id="SVGID_5_" gradientUnits="userSpaceOnUse" x1="-189.2915" y1="107.2241" x2="-182.759" y2="100.6917" gradientTransform="matrix(1 0 0 -1 202.5 166.917)">
		<stop  offset="0" style="stop-color:#F38384"/>
		<stop  offset="1" style="stop-color:#F8E269"/>
	</linearGradient>
	<path fill="url(#SVGID_5_)" d="M15.996,68.971h1V56.99c-0.062,0.102-0.133,0.197-0.189,0.305c-0.253-0.166-0.527-0.293-0.811-0.389
		V68.971z"/>
	
		<linearGradient id="SVGID_6_" gradientUnits="userSpaceOnUse" x1="-194.8403" y1="103.5854" x2="-192.1679" y2="100.9131" gradientTransform="matrix(1 0 0 -1 202.5 166.917)">
		<stop  offset="0" style="stop-color:#F38384"/>
		<stop  offset="1" style="stop-color:#F8E269"/>
	</linearGradient>
	<path fill="url(#SVGID_6_)" d="M8.996,61.994c-0.605,0.748-0.976,1.689-0.992,2.711c0.027,1.004,0.403,1.91,0.992,2.635V61.994z"/>
	
		<linearGradient id="SVGID_7_" gradientUnits="userSpaceOnUse" x1="-185.6123" y1="110.0786" x2="-173.2771" y2="97.7434" gradientTransform="matrix(1 0 0 -1 202.5 166.917)">
		<stop  offset="0" style="stop-color:#F38384"/>
		<stop  offset="1" style="stop-color:#F8E269"/>
	</linearGradient>
	<path fill="url(#SVGID_7_)" d="M31.996,64.498c0.032-2.115-1.398-3.975-3.451-4.483c0.005-0.087,0.007-0.175,0.007-0.263
		c-0.112-3.295-2.87-5.877-6.166-5.771c-1.664-0.021-3.229,0.63-4.39,1.75v13.241h9.611c2.425-0.001,4.39-1.966,4.39-4.39
		C31.997,64.554,31.996,64.524,31.996,64.498z"/>
	
		<linearGradient id="SVGID_8_" gradientUnits="userSpaceOnUse" x1="-192.7314" y1="106.5688" x2="-186.8066" y2="100.644" gradientTransform="matrix(1 0 0 -1 202.5 166.917)">
		<stop  offset="0" style="stop-color:#F38384"/>
		<stop  offset="1" style="stop-color:#F8E269"/>
	</linearGradient>
	<path fill="url(#SVGID_8_)" d="M12.996,57.218c-0.411,0.265-0.75,0.625-1,1.05v10.668c0.172,0.017,0.34,0.043,0.517,0.038
		c0.024-0.001,0.048-0.002,0.072-0.003h0.411V57.218z"/>
</g>
<linearGradient id="pas__2_2_" gradientUnits="userSpaceOnUse" x1="41.4746" y1="104.9175" x2="49.3984" y2="104.9175" gradientTransform="matrix(1 0 0 -1 202.5 166.917)">
	<stop  offset="0" style="stop-color:#F38384"/>
	<stop  offset="1" style="stop-color:#F8E269"/>
</linearGradient>
<path id="pas__2_1_" fill="url(#pas__2_2_)" d="M244.846,68.973l7.053-6.976l-7.053-6.971l-0.871,0.874l6.166,6.101l-6.166,6.101
	L244.846,68.973z"/>
<linearGradient id="pas__3_2_" gradientUnits="userSpaceOnUse" x1="83.5049" y1="104.9175" x2="91.4941" y2="104.9175" gradientTransform="matrix(1 0 0 -1 202.5 166.917)">
	<stop  offset="0" style="stop-color:#F38384"/>
	<stop  offset="1" style="stop-color:#F8E269"/>
</linearGradient>
<path id="pas__3_1_" fill="url(#pas__3_2_)" d="M293.111,69.003l-7.106-7.008l7.106-7l0.883,0.877l-6.219,6.123l6.219,6.129
	L293.111,69.003z"/>
<g>
	
		<linearGradient id="SVGID_9_" gradientUnits="userSpaceOnUse" x1="-202.5" y1="124.9175" x2="-162.5001" y2="84.9176" gradientTransform="matrix(1 0 0 -1 202.5 166.917)">
		<stop  offset="0" style="stop-color:#F38384"/>
		<stop  offset="1" style="stop-color:#F8E269"/>
	</linearGradient>
	<path fill="url(#SVGID_9_)" d="M39,43v38H1V43H39 M40,42H0v40h40V42L40,42z"/>
</g>
<g>
	
		<linearGradient id="SVGID_10_" gradientUnits="userSpaceOnUse" x1="-160.5" y1="124.9175" x2="-120.5001" y2="84.9177" gradientTransform="matrix(1 0 0 -1 202.5 166.917)">
		<stop  offset="0" style="stop-color:#F38384"/>
		<stop  offset="1" style="stop-color:#F8E269"/>
	</linearGradient>
	<path fill="url(#SVGID_10_)" d="M81,43v38H43V43H81 M82,42H42v40h40V42L82,42z"/>
</g>
<g>
	
		<linearGradient id="SVGID_11_" gradientUnits="userSpaceOnUse" x1="-118.583" y1="124.9175" x2="-78.5831" y2="84.9176" gradientTransform="matrix(1 0 0 -1 202.5 166.917)">
		<stop  offset="0" style="stop-color:#F38384"/>
		<stop  offset="1" style="stop-color:#F8E269"/>
	</linearGradient>
	<path fill="url(#SVGID_11_)" d="M122.917,43v38h-38V43H122.917 M123.917,42h-40v40h40V42L123.917,42z"/>
</g>
<g>
	
		<linearGradient id="SVGID_12_" gradientUnits="userSpaceOnUse" x1="-76.5825" y1="124.9175" x2="-36.5833" y2="84.9183" gradientTransform="matrix(1 0 0 -1 202.5 166.917)">
		<stop  offset="0" style="stop-color:#F38384"/>
		<stop  offset="1" style="stop-color:#F8E269"/>
	</linearGradient>
	<path fill="url(#SVGID_12_)" d="M164.917,43v38h-38V43H164.917 M165.917,42h-40v40h40V42L165.917,42z"/>
</g>
<g>
	
		<linearGradient id="SVGID_13_" gradientUnits="userSpaceOnUse" x1="-34.647" y1="124.9165" x2="5.3529" y2="84.9166" gradientTransform="matrix(1 0 0 -1 202.5 166.917)">
		<stop  offset="0" style="stop-color:#F38384"/>
		<stop  offset="1" style="stop-color:#F8E269"/>
	</linearGradient>
	<path fill="url(#SVGID_13_)" d="M206.854,43v38h-38V43H206.854 M207.854,42h-40v40h40V42L207.854,42z"/>
</g>
<g>
	
		<linearGradient id="SVGID_14_" gradientUnits="userSpaceOnUse" x1="25.4365" y1="124.9175" x2="65.4358" y2="84.9184" gradientTransform="matrix(1 0 0 -1 202.5 166.917)">
		<stop  offset="0" style="stop-color:#F38384"/>
		<stop  offset="1" style="stop-color:#F8E269"/>
	</linearGradient>
	<path fill="url(#SVGID_14_)" d="M266.936,43v38h-38V43H266.936 M267.936,42h-40v40h40V42L267.936,42z"/>
</g>
<g>
	
		<linearGradient id="SVGID_15_" gradientUnits="userSpaceOnUse" x1="67.5" y1="124.9165" x2="107.4992" y2="84.9174" gradientTransform="matrix(1 0 0 -1 202.5 166.917)">
		<stop  offset="0" style="stop-color:#F38384"/>
		<stop  offset="1" style="stop-color:#F8E269"/>
	</linearGradient>
	<path fill="url(#SVGID_15_)" d="M309,43v38h-38V43H309 M310,42h-40v40h40V42L310,42z"/>
</g>
</svg>
